<?xml version="1.0" encoding="UTF-8"?>
<svg id="Layer_1" xmlns="http://www.w3.org/2000/svg" version="1.1" viewBox="0 0 449.5 252.99">
  <!-- Generator: Adobe Illustrator 29.8.5, SVG Export Plug-In . SVG Version: 2.1.1 Build 2)  -->
  <defs>
    <style>
      .st0 {
        fill: #fff;
      }
    </style>
  </defs>
  <polygon points="368.79 191.05 368.25 157.07 116.36 160.41 116.36 111.89 87.12 111.89 87.33 191.05 368.79 191.05"/>
  <g>
    <rect class="st0" x="109.46" y="79.83" width="281.42" height="91.65"/>
    <path d="M387.88,82.83v85.65H112.46v-85.65h275.42M393.88,76.83H106.46v97.65h287.42v-97.65h0Z"/>
  </g>
  <g>
    <path d="M185.32,144.47c-.48.4-1.37.94-2.67,1.62-1.3.68-2.89,1.28-4.77,1.8-1.88.52-3.96.76-6.24.72-3.48-.08-6.59-.71-9.33-1.89-2.74-1.18-5.06-2.79-6.96-4.83-1.9-2.04-3.35-4.38-4.35-7.02-1-2.64-1.5-5.46-1.5-8.46,0-3.36.51-6.44,1.53-9.24,1.02-2.8,2.48-5.22,4.38-7.26,1.9-2.04,4.17-3.62,6.81-4.74,2.64-1.12,5.56-1.68,8.76-1.68,2.96,0,5.58.4,7.86,1.2,2.28.8,4.14,1.66,5.58,2.58l-3.42,8.22c-1-.76-2.33-1.55-3.99-2.37-1.66-.82-3.57-1.23-5.73-1.23-1.68,0-3.29.35-4.83,1.05-1.54.7-2.9,1.69-4.08,2.97-1.18,1.28-2.11,2.77-2.79,4.47-.68,1.7-1.02,3.55-1.02,5.55,0,2.12.31,4.06.93,5.82.62,1.76,1.51,3.27,2.67,4.53,1.16,1.26,2.55,2.23,4.17,2.91,1.62.68,3.45,1.02,5.49,1.02,2.36,0,4.38-.38,6.06-1.14,1.68-.76,2.96-1.56,3.84-2.4l3.6,7.8Z"/>
    <path d="M199.42,103.97h8.7v35.76h20.76v8.4h-29.46v-44.16Z"/>
    <path d="M243.28,103.97h8.7v44.16h-8.7v-44.16Z"/>
    <path d="M301.9,144.47c-.48.4-1.37.94-2.67,1.62-1.3.68-2.89,1.28-4.77,1.8-1.88.52-3.96.76-6.24.72-3.48-.08-6.59-.71-9.33-1.89-2.74-1.18-5.06-2.79-6.96-4.83-1.9-2.04-3.35-4.38-4.35-7.02-1-2.64-1.5-5.46-1.5-8.46,0-3.36.51-6.44,1.53-9.24,1.02-2.8,2.48-5.22,4.38-7.26,1.9-2.04,4.17-3.62,6.81-4.74,2.64-1.12,5.56-1.68,8.76-1.68,2.96,0,5.58.4,7.86,1.2,2.28.8,4.14,1.66,5.58,2.58l-3.42,8.22c-1-.76-2.33-1.55-3.99-2.37-1.66-.82-3.57-1.23-5.73-1.23-1.68,0-3.29.35-4.83,1.05-1.54.7-2.9,1.69-4.08,2.97-1.18,1.28-2.11,2.77-2.79,4.47-.68,1.7-1.02,3.55-1.02,5.55,0,2.12.31,4.06.93,5.82.62,1.76,1.51,3.27,2.67,4.53,1.16,1.26,2.55,2.23,4.17,2.91,1.62.68,3.45,1.02,5.49,1.02,2.36,0,4.38-.38,6.06-1.14,1.68-.76,2.96-1.56,3.84-2.4l3.6,7.8Z"/>
    <path d="M324.82,119.69l-.24,2.22,1.32-1.68,14.4-16.26h11.28l-18.24,19.8,18.3,24.36h-11.04l-13.62-18.84-2.16,2.16v16.68h-8.82v-44.16h8.82v15.72Z"/>
  </g>
</svg>