# Dodecagonal Pyramid OBJ - Generated by Python
# Base: 12 sides, Height: 1.8, Radius: 1.0
o Pyramide_12

v 0.000000 0.000000 1.800000
v 1.000000 0.000000 0.000000
v 0.866025 0.500000 0.000000
v 0.500000 0.866025 0.000000
v 0.000000 1.000000 0.000000
v -0.500000 0.866025 0.000000
v -0.866025 0.500000 0.000000
v -1.000000 0.000000 0.000000
v -0.866025 -0.500000 0.000000
v -0.500000 -0.866025 0.000000
v -0.000000 -1.000000 0.000000
v 0.500000 -0.866025 0.000000
v 0.866025 -0.500000 0.000000

vn 0.851121 0.228057 0.472845
vn 0.623064 0.623064 0.472845
vn 0.228057 0.851121 0.472845
vn -0.228057 0.851121 0.472845
vn -0.623064 0.623064 0.472845
vn -0.851121 0.228057 0.472845
vn -0.851121 -0.228057 0.472845
vn -0.623064 -0.623064 0.472845
vn -0.228057 -0.851121 0.472845
vn 0.228057 -0.851121 0.472845
vn 0.623064 -0.623064 0.472845
vn 0.851121 -0.228057 0.472845
vn 0.000000 0.000000 -1.000000

s 1
f 1//1 2//1 3//1
f 1//2 3//2 4//2
f 1//3 4//3 5//3
f 1//4 5//4 6//4
f 1//5 6//5 7//5
f 1//6 7//6 8//6
f 1//7 8//7 9//7
f 1//8 9//8 10//8
f 1//9 10//9 11//9
f 1//10 11//10 12//10
f 1//11 12//11 13//11
f 1//12 13//12 2//12

s 2
f 13//13 12//13 11//13 10//13 9//13 8//13 7//13 6//13 5//13 4//13 3//13 2//13
