<?xml version="1.0" encoding="UTF-8"?>
<svg id="Calque_1" xmlns="http://www.w3.org/2000/svg" xmlns:xlink="http://www.w3.org/1999/xlink" version="1.1" viewBox="0 0 1920 1080">
  <!-- Generator: Adobe Illustrator 29.8.5, SVG Export Plug-In . SVG Version: 2.1.1 Build 2)  -->
  <defs>
    <style>
      .st0, .st1, .st2 {
        fill: none;
      }

      .st3 {
        clip-path: url(#clippath-17);
      }

      .st4 {
        clip-path: url(#clippath-11);
      }

      .st5 {
        clip-path: url(#clippath-16);
      }

      .st6 {
        clip-path: url(#clippath-18);
      }

      .st7 {
        clip-path: url(#clippath-10);
      }

      .st8 {
        clip-path: url(#clippath-15);
      }

      .st9 {
        clip-path: url(#clippath-13);
      }

      .st10 {
        clip-path: url(#clippath-14);
      }

      .st11 {
        clip-path: url(#clippath-12);
      }

      .st12 {
        clip-path: url(#clippath-1);
      }

      .st13 {
        clip-path: url(#clippath-3);
      }

      .st14 {
        clip-path: url(#clippath-4);
      }

      .st15 {
        clip-path: url(#clippath-2);
      }

      .st16 {
        clip-path: url(#clippath-7);
      }

      .st17 {
        clip-path: url(#clippath-6);
      }

      .st18 {
        clip-path: url(#clippath-9);
      }

      .st19 {
        clip-path: url(#clippath-8);
      }

      .st20 {
        clip-path: url(#clippath-5);
      }

      .st1 {
        stroke: #fff;
      }

      .st1, .st2 {
        stroke-width: 4px;
      }

      .st21 {
        fill: #fff;
      }

      .st22 {
        fill: #ff1708;
      }

      .st23 {
        clip-path: url(#clippath);
      }

      .st2 {
        stroke: #000;
      }

      .st24 {
        fill: #d6d0be;
      }
    </style>
    <clipPath id="clippath">
      <rect class="st0" x="-4123.4" y="-837.7" width="351" height="197"/>
    </clipPath>
    <clipPath id="clippath-1">
      <rect class="st0" x="-3191.7" y="491.2" width="65" height="116"/>
    </clipPath>
    <clipPath id="clippath-2">
      <rect class="st0" x="-994.3" y="491.5" width="65" height="116"/>
    </clipPath>
    <clipPath id="clippath-3">
      <rect class="st0" x="-1728.5" y="4101.7" width="276.2" height="492"/>
    </clipPath>
    <clipPath id="clippath-4">
      <rect class="st0" x="-1445.5" y="4105.5" width="276.2" height="492"/>
    </clipPath>
    <clipPath id="clippath-5">
      <rect class="st0" x="-1732.6" y="6054.9" width="280.2" height="499.1"/>
    </clipPath>
    <clipPath id="clippath-6">
      <rect class="st0" x="-1445.5" y="6058.8" width="280.2" height="499.1"/>
    </clipPath>
    <clipPath id="clippath-7">
      <rect class="st0" x="536.9" y="6059.2" width="450.5" height="252.9"/>
    </clipPath>
    <clipPath id="clippath-8">
      <rect class="st0" x="533.4" y="6318.4" width="450.5" height="252.9"/>
    </clipPath>
    <clipPath id="clippath-9">
      <rect class="st0" x="2664.1" y="6152.6" width="424.6" height="238.4"/>
    </clipPath>
    <clipPath id="clippath-10">
      <rect class="st0" x="2663.7" y="6394.9" width="424.6" height="238.4"/>
    </clipPath>
    <clipPath id="clippath-11">
      <rect class="st0" x="2592.2" y="4181.9" width="567.3" height="318.5"/>
    </clipPath>
    <clipPath id="clippath-12">
      <rect class="st0" x="482.8" y="4189.4" width="550.9" height="309.3"/>
    </clipPath>
    <clipPath id="clippath-13">
      <rect class="st0" x="-3791.8" y="6059.2" width="450.5" height="252.9"/>
    </clipPath>
    <clipPath id="clippath-14">
      <rect class="st0" x="-3795.4" y="6318.4" width="450.5" height="252.9"/>
    </clipPath>
    <clipPath id="clippath-15">
      <rect class="st0" x="-3782.3" y="4122.7" width="424.6" height="238.4"/>
    </clipPath>
    <clipPath id="clippath-16">
      <rect class="st0" x="-3782.6" y="4365" width="424.6" height="238.4"/>
    </clipPath>
    <clipPath id="clippath-17">
      <rect class="st0" x="-1908.1" y="-837.2" width="351" height="197"/>
    </clipPath>
    <clipPath id="clippath-18">
      <rect class="st0" x="404.5" y="457.3" width="351" height="197"/>
    </clipPath>
  </defs>
  <rect x="-4437.9" y="3618.1" width="1739.2" height="1640"/>
  <rect x="-2312.6" y="5576.2" width="1739.2" height="1640"/>
  <rect x="-20" y="-1297.8" width="1920" height="1086.7"/>
  <rect x="-4528.4" y="-1297.8" width="1920" height="1086.7"/>
  <rect x="-4528.4" y="-2717" width="1920" height="1086.7"/>
  <path class="st22" d="M-3953-2120.8c-22.4,0-40.6-18.2-40.6-40.8s18.2-40.6,40.6-40.6,26.7,7.4,34.1,18.4l27.6-18.4c-13.4-19.9-35.9-33.1-61.7-33.1s-29.1,4.5-40.6,12.2c-20.1,13.2-33.1,35.9-33.1,61.5s13,48.3,33.1,61.5c11.5,7.9,25.6,12.4,40.6,12.4,25.7,0,48.3-13.4,61.7-33.1l-27.6-18.5c-7.3,11.2-19.9,18.5-34.1,18.5Z"/>
  <path class="st22" d="M-3775.4-2223.1c-11.5-7.7-25.6-12.2-40.4-12.2-40.9,0-73.9,33.1-73.9,73.7s32.9,73.9,73.9,73.9,28.9-4.5,40.4-12.4c20-13.2,33.1-35.8,33.1-61.5s-13-48.3-33.1-61.5ZM-3856.6-2161.6c0-22.4,18.2-40.6,40.8-40.6s40.4,18.2,40.4,40.6-18.2,40.8-40.4,40.8-40.8-18.2-40.8-40.8Z"/>
  <path class="st21" d="M-3639.9-2120.8v33.1h33.1v-80.7c0-24.4-13.4-46-33.1-57.5-10-6-21.6-9.4-33.9-9.4s-23.7,3.3-33.8,9.4v-9.4h-33.1v147.5h33.1v-80.7c0-18.5,15.4-33.8,33.8-33.8s33.9,15.2,33.9,33.8v47.6Z"/>
  <path class="st21" d="M-3504.4-2120.8v33.1h33.1v-80.7c0-24.4-13.4-46-33.1-57.5-10-6-21.6-9.4-33.9-9.4s-23.7,3.3-33.8,9.4v-9.4h-33.1v147.5h33.1v-80.7c0-18.5,15.4-33.8,33.8-33.8s33.9,15.2,33.9,33.8v47.6Z"/>
  <path class="st21" d="M-3430.3-2183.5c7.4-11.4,19.9-18.7,34.3-18.7s26.7,7.4,34.1,18.4c0,.2.2.2.2.3h-68.5ZM-3396-2087.7c25.7,0,48.3-13.4,61.7-33.1l-27.6-18.5c-7.3,11.2-19.9,18.5-34.1,18.5s-34.4-12.5-39.1-29.7h111.9c.5-3.5.8-7.3.8-11,0-7.5-1.2-15-3.3-21.9-2-6.7-5-13-8.7-18.7-13.4-19.9-35.9-33.1-61.7-33.1s-29.1,4.5-40.6,12.2c-14,9.4-24.6,23.2-29.9,39.6-2,6.9-3.2,14.4-3.2,21.9s.3,7.5.7,11c3.3,21.2,15.4,39.3,32.4,50.5,11.5,7.9,25.6,12.4,40.6,12.4Z"/>
  <path class="st21" d="M-3247-2120.8c-22.4,0-40.6-18.2-40.6-40.8s18.2-40.6,40.6-40.6,26.7,7.4,34.1,18.4l27.6-18.4c-13.4-19.9-35.9-33.1-61.7-33.1s-29.1,4.5-40.6,12.2c-20.1,13.2-33.1,35.9-33.1,61.5s13,48.3,33.1,61.5c11.5,7.9,25.6,12.4,40.6,12.4,25.7,0,48.3-13.4,61.7-33.1l-27.6-18.5c-7.3,11.2-19.9,18.5-34.1,18.5Z"/>
  <path class="st21" d="M-3183.7-2161.6v-113.5h33.1v39.8h33.3v33.1h-33.3v40.6c0,22.6,18,40.8,40.6,40.8v33.1c-15,0-29.1-4.5-40.6-12.4-19.9-13.2-33.1-35.8-33.1-61.5Z"/>
  <path class="st22" d="M-3364.4-2063.9c7.1,0,12.9,2.2,17.4,6.6,4.5,4.4,6.7,10.1,6.7,17s-2.2,12.9-6.7,17.4c-4.5,4.5-10.3,6.7-17.4,6.7s-12.6-2.2-17.1-6.7c-4.5-4.5-6.7-10.3-6.7-17.4s2.2-12.6,6.7-17c4.5-4.4,10.2-6.6,17.1-6.6Z"/>
  <path class="st21" d="M-3351.4-2031.8v-9.9c0-4,2.9-6.5,6-6.5s5.2,1.9,5.2,6.2v10.1h3.2v-10.2c0-6-2.6-9.1-7.6-9.1s-5.9,1.8-6.9,4.2v-3.6h-3v18.8h3.2Z"/>
  <path class="st21" d="M-3332.9-2054.2c1.4,0,2.2-.9,2.2-2s-.8-2-2.2-2-2.2.9-2.2,2,.8,2,2.1,2ZM-3331.3-2031.8v-18.8h-3.2v18.8h3.2Z"/>
  <path class="st21" d="M-3320.4-2031.2c4.5,0,7.9-2.8,9-6.8h-3.2c-1,2.6-3.2,3.9-5.7,3.9s-6.4-2.6-6.4-7,3.2-6.9,6.4-6.9,4.7,1.3,5.7,3.7h3.3c-1.1-3.9-4.5-6.7-9-6.7s-9.6,4.4-9.6,9.9,4.2,9.9,9.6,9.9Z"/>
  <path class="st21" d="M-3293.1-2041.6c0-5-3.9-9.5-9.3-9.5s-9.6,4.4-9.6,9.9,4.1,9.9,9.6,9.9,7.6-2.7,8.7-6.2h-3.6c-.8,2.1-2.7,3.2-5.2,3.2s-5.9-2.4-6.3-6.1h15.6c0-.7,0-1,0-1.3ZM-3308.6-2043.1c.7-3.2,3.3-5,6.1-5s5.9,2.3,6.1,5h-12.2Z"/>
  <path class="st21" d="M-3275.3-2031.8v-2.7h-2.8c-1.7,0-3.4-.6-3.4-4.1v-9.2h6.2v-2.8h-6.2v-5.6h-3.2v5.6h-4.2v2.8h4.2v9c0,5.9,3.1,7,5.9,7h3.5Z"/>
  <path class="st21" d="M-3266.3-2031.2c5.6,0,9.8-4.4,9.8-9.9s-4.2-9.9-9.8-9.9-9.8,4.4-9.8,9.9,4.2,9.9,9.8,9.9ZM-3266.3-2034.2c-3.7,0-6.6-2.9-6.6-6.9s2.9-6.9,6.6-6.9,6.6,3,6.6,6.9-2.9,6.9-6.6,6.9Z"/>
  <path class="st21" d="M-3226.2-2051.1c-2.9,0-5.4,1.6-6.9,4.8-1-3.2-3.2-4.8-6.6-4.8s-5.5,1.8-6.5,4.2v-3.6h-3v18.8h3.1v-9.9c0-3.8,2.6-6.5,5.5-6.5s4.8,1.9,4.8,6.2v10.1h3.1v-9.9c0-3.8,2.6-6.5,5.5-6.5s4.8,1.9,4.8,6.2v10.1h3.1v-10.2c0-6-2.5-9.1-7.1-9.1Z"/>
  <path class="st21" d="M-3198.9-2041.6c0-5.2-3.8-9.7-9.5-9.7s-9.8,4.5-9.8,10,4.1,10,9.8,10,8.1-3.1,9-6.5h-4.9c-.6,1.6-2,2.5-4.3,2.5s-4.8-1.8-5.3-4.9h14.8c0-.7,0-1,0-1.5ZM-3213.6-2043.5c.8-2.7,2.9-3.9,5.1-3.9s4.8,1.8,5,3.9h-10.1Z"/>
  <path class="st21" d="M-3180.5-2041.6c0-5.2-3.8-9.7-9.5-9.7s-9.8,4.5-9.8,10,4.1,10,9.8,10,8.1-3.1,9-6.5h-4.9c-.6,1.6-2,2.5-4.3,2.5s-4.8-1.8-5.3-4.9h14.8c0-.7,0-1,0-1.5ZM-3195.2-2043.5c.8-2.7,2.9-3.9,5.1-3.9s4.8,1.8,5,3.9h-10.1Z"/>
  <path class="st21" d="M-3168.9-2031.8v-2.7h-2.8c-1.7,0-3.4-.6-3.4-4.1v-9.2h6.2v-2.8h-6.2v-5.6h-3.2v5.6h-4.2v2.8h4.2v9c0,5.9,3.1,7,5.9,7h3.5Z"/>
  <path class="st21" d="M-3161-2025.4c4.1,0,5.5-1.6,7.6-6.9l7.4-18.3h-3.4s-5.3,13.3-5.3,13.3l-.5,1.6-.4-1.7-5.3-13.3h-3.4l7.5,18.2-.2.5c-1,2.6-1.7,3.8-4,3.8h-3.1v2.7h3.1Z"/>
  <path class="st21" d="M-3137.7-2031.2c5.6,0,9.8-4.4,9.8-9.9s-4.2-9.9-9.8-9.9-9.8,4.4-9.8,9.9,4.2,9.9,9.8,9.9ZM-3137.7-2034.2c-3.7,0-6.6-2.9-6.6-6.9s2.9-6.9,6.6-6.9,6.6,3,6.6,6.9-2.9,6.9-6.6,6.9Z"/>
  <path class="st21" d="M-3118.6-2031.2c4.9,0,8.5-2.8,8.5-9.3v-10h-3.2v9.9c0,4.2-1.9,6.4-5.4,6.4s-5.4-2.2-5.4-6.4v-9.9h-3.1v10c0,6.5,3.6,9.3,8.6,9.3Z"/>
  <path class="st21" d="M-1737.2-2120.8c-22.4,0-40.6-18.2-40.6-40.8s18.2-40.6,40.6-40.6,26.7,7.4,34.1,18.4l27.6-18.4c-13.4-19.9-35.9-33.1-61.7-33.1s-29.1,4.5-40.6,12.2c-20.1,13.2-33.1,35.9-33.1,61.5s13,48.3,33.1,61.5c11.5,7.9,25.6,12.4,40.6,12.4,25.7,0,48.3-13.4,61.7-33.1l-27.6-18.5c-7.3,11.2-19.9,18.5-34.1,18.5Z"/>
  <path class="st21" d="M-1559.6-2223.1c-11.5-7.7-25.6-12.2-40.4-12.2-40.9,0-73.9,33.1-73.9,73.7s32.9,73.9,73.9,73.9,28.9-4.5,40.4-12.4c20-13.2,33.1-35.8,33.1-61.5s-13-48.3-33.1-61.5ZM-1640.8-2161.6c0-22.4,18.2-40.6,40.8-40.6s40.4,18.2,40.4,40.6-18.2,40.8-40.4,40.8-40.8-18.2-40.8-40.8Z"/>
  <path class="st21" d="M-1424.1-2120.8v33.1h33.1v-80.7c0-24.4-13.4-46-33.1-57.5-10-6-21.6-9.4-33.9-9.4s-23.7,3.3-33.8,9.4v-9.4h-33.1v147.5h33.1v-80.7c0-18.5,15.4-33.8,33.8-33.8s33.9,15.2,33.9,33.8v47.6Z"/>
  <path class="st21" d="M-1288.6-2120.8v33.1h33.1v-80.7c0-24.4-13.4-46-33.1-57.5-10-6-21.6-9.4-33.9-9.4s-23.7,3.3-33.8,9.4v-9.4h-33.1v147.5h33.1v-80.7c0-18.5,15.4-33.8,33.8-33.8s33.9,15.2,33.9,33.8v47.6Z"/>
  <path class="st21" d="M-1214.5-2183.5c7.4-11.4,19.9-18.7,34.3-18.7s26.7,7.4,34.1,18.4c0,.2.2.2.2.3h-68.5ZM-1180.2-2087.7c25.7,0,48.3-13.4,61.7-33.1l-27.6-18.5c-7.3,11.2-19.9,18.5-34.1,18.5s-34.4-12.5-39.1-29.7h111.9c.5-3.5.8-7.3.8-11,0-7.5-1.2-15-3.3-21.9-2-6.7-5-13-8.7-18.7-13.4-19.9-35.9-33.1-61.7-33.1s-29.1,4.5-40.6,12.2c-14,9.4-24.6,23.2-29.9,39.6-2,6.9-3.2,14.4-3.2,21.9s.3,7.5.7,11c3.3,21.2,15.4,39.3,32.4,50.5,11.5,7.9,25.6,12.4,40.6,12.4Z"/>
  <path class="st21" d="M-1031.2-2120.8c-22.4,0-40.6-18.2-40.6-40.8s18.2-40.6,40.6-40.6,26.7,7.4,34.1,18.4l27.6-18.4c-13.4-19.9-35.9-33.1-61.7-33.1s-29.1,4.5-40.6,12.2c-20.1,13.2-33.1,35.9-33.1,61.5s13,48.3,33.1,61.5c11.5,7.9,25.6,12.4,40.6,12.4,25.7,0,48.3-13.4,61.7-33.1l-27.6-18.5c-7.3,11.2-19.9,18.5-34.1,18.5Z"/>
  <path class="st21" d="M-967.9-2161.6v-113.5h33.1v39.8h33.3v33.1h-33.3v40.6c0,22.6,18,40.8,40.6,40.8v33.1c-15,0-29.1-4.5-40.6-12.4-19.9-13.2-33.1-35.8-33.1-61.5Z"/>
  <path class="st22" d="M-1148.6-2063.9c7.1,0,12.9,2.2,17.4,6.6,4.5,4.4,6.7,10.1,6.7,17s-2.2,12.9-6.7,17.4c-4.5,4.5-10.3,6.7-17.4,6.7s-12.6-2.2-17.1-6.7c-4.5-4.5-6.7-10.3-6.7-17.4s2.2-12.6,6.7-17c4.5-4.4,10.2-6.6,17.1-6.6Z"/>
  <path class="st21" d="M-1135.6-2031.8v-9.9c0-4,2.9-6.5,6-6.5s5.2,1.9,5.2,6.2v10.1h3.2v-10.2c0-6-2.6-9.1-7.6-9.1s-5.9,1.8-6.9,4.2v-3.6h-3v18.8h3.2Z"/>
  <path class="st21" d="M-1117-2054.2c1.4,0,2.2-.9,2.2-2s-.8-2-2.2-2-2.2.9-2.2,2,.8,2,2.1,2ZM-1115.4-2031.8v-18.8h-3.2v18.8h3.2Z"/>
  <path class="st21" d="M-1104.6-2031.2c4.5,0,7.9-2.8,9-6.8h-3.2c-1,2.6-3.2,3.9-5.7,3.9s-6.4-2.6-6.4-7,3.2-6.9,6.4-6.9,4.7,1.3,5.7,3.7h3.3c-1.1-3.9-4.5-6.7-9-6.7s-9.6,4.4-9.6,9.9,4.2,9.9,9.6,9.9Z"/>
  <path class="st21" d="M-1077.3-2041.6c0-5-3.9-9.5-9.3-9.5s-9.6,4.4-9.6,9.9,4.1,9.9,9.6,9.9,7.6-2.7,8.7-6.2h-3.6c-.8,2.1-2.7,3.2-5.2,3.2s-5.9-2.4-6.3-6.1h15.6c0-.7,0-1,0-1.3ZM-1092.8-2043.1c.7-3.2,3.3-5,6.1-5s5.9,2.3,6.1,5h-12.2Z"/>
  <path class="st21" d="M-1059.5-2031.8v-2.7h-2.8c-1.7,0-3.4-.6-3.4-4.1v-9.2h6.2v-2.8h-6.2v-5.6h-3.2v5.6h-4.2v2.8h4.2v9c0,5.9,3.1,7,5.9,7h3.5Z"/>
  <path class="st21" d="M-1050.5-2031.2c5.6,0,9.8-4.4,9.8-9.9s-4.2-9.9-9.8-9.9-9.8,4.4-9.8,9.9,4.2,9.9,9.8,9.9ZM-1050.4-2034.2c-3.7,0-6.6-2.9-6.6-6.9s2.9-6.9,6.6-6.9,6.6,3,6.6,6.9-2.9,6.9-6.6,6.9Z"/>
  <path class="st21" d="M-1010.4-2051.1c-2.9,0-5.4,1.6-6.9,4.8-1-3.2-3.2-4.8-6.6-4.8s-5.5,1.8-6.5,4.2v-3.6h-3v18.8h3.1v-9.9c0-3.8,2.6-6.5,5.5-6.5s4.8,1.9,4.8,6.2v10.1h3.1v-9.9c0-3.8,2.6-6.5,5.5-6.5s4.8,1.9,4.8,6.2v10.1h3.1v-10.2c0-6-2.5-9.1-7.1-9.1Z"/>
  <path class="st21" d="M-983.1-2041.6c0-5.2-3.8-9.7-9.5-9.7s-9.8,4.5-9.8,10,4.1,10,9.8,10,8.1-3.1,9-6.5h-4.9c-.6,1.6-2,2.5-4.3,2.5s-4.8-1.8-5.3-4.9h14.8c0-.7,0-1,0-1.5ZM-997.8-2043.5c.8-2.7,2.9-3.9,5.1-3.9s4.8,1.8,5,3.9h-10.1Z"/>
  <path class="st21" d="M-964.7-2041.6c0-5.2-3.8-9.7-9.5-9.7s-9.8,4.5-9.8,10,4.1,10,9.8,10,8.1-3.1,9-6.5h-4.9c-.6,1.6-2,2.5-4.3,2.5s-4.8-1.8-5.3-4.9h14.8c0-.7,0-1,0-1.5ZM-979.3-2043.5c.8-2.7,2.9-3.9,5.1-3.9s4.8,1.8,5,3.9h-10.1Z"/>
  <path class="st21" d="M-953.1-2031.8v-2.7h-2.8c-1.7,0-3.4-.6-3.4-4.1v-9.2h6.2v-2.8h-6.2v-5.6h-3.2v5.6h-4.2v2.8h4.2v9c0,5.9,3.1,7,5.9,7h3.5Z"/>
  <path class="st21" d="M-945.1-2025.4c4.1,0,5.5-1.6,7.6-6.9l7.4-18.3h-3.4s-5.3,13.3-5.3,13.3l-.5,1.6-.4-1.7-5.3-13.3h-3.4l7.5,18.2-.2.5c-1,2.6-1.7,3.8-4,3.8h-3.1v2.7h3.1Z"/>
  <path class="st21" d="M-921.9-2031.2c5.6,0,9.8-4.4,9.8-9.9s-4.2-9.9-9.8-9.9-9.8,4.4-9.8,9.9,4.2,9.9,9.8,9.9ZM-921.9-2034.2c-3.7,0-6.6-2.9-6.6-6.9s2.9-6.9,6.6-6.9,6.6,3,6.6,6.9-2.9,6.9-6.6,6.9Z"/>
  <path class="st21" d="M-902.8-2031.2c4.9,0,8.5-2.8,8.5-9.3v-10h-3.2v9.9c0,4.2-1.9,6.4-5.4,6.4s-5.4-2.2-5.4-6.4v-9.9h-3.1v10c0,6.5,3.6,9.3,8.6,9.3Z"/>
  <path d="M555.3-2120.8c-22.4,0-40.6-18.2-40.6-40.8s18.2-40.6,40.6-40.6,26.7,7.4,34.1,18.4l27.6-18.4c-13.4-19.9-35.9-33.1-61.7-33.1s-29.1,4.5-40.6,12.2c-20.1,13.2-33.1,35.9-33.1,61.5s13,48.3,33.1,61.5c11.5,7.9,25.6,12.4,40.6,12.4,25.7,0,48.3-13.4,61.7-33.1l-27.6-18.5c-7.3,11.2-19.9,18.5-34.1,18.5Z"/>
  <path d="M732.9-2223.1c-11.5-7.7-25.6-12.2-40.4-12.2-40.9,0-73.9,33.1-73.9,73.7s32.9,73.9,73.9,73.9,28.9-4.5,40.4-12.4c20-13.2,33.1-35.8,33.1-61.5s-13-48.3-33.1-61.5ZM651.7-2161.6c0-22.4,18.2-40.6,40.8-40.6s40.4,18.2,40.4,40.6-18.2,40.8-40.4,40.8-40.8-18.2-40.8-40.8Z"/>
  <path d="M868.4-2120.8v33.1h33.1v-80.7c0-24.4-13.4-46-33.1-57.5-10-6-21.6-9.4-33.9-9.4s-23.7,3.3-33.8,9.4v-9.4h-33.1v147.5h33.1v-80.7c0-18.5,15.4-33.8,33.8-33.8s33.9,15.2,33.9,33.8v47.6Z"/>
  <path d="M1003.9-2120.8v33.1h33.1v-80.7c0-24.4-13.4-46-33.1-57.5-10-6-21.6-9.4-33.9-9.4s-23.7,3.3-33.8,9.4v-9.4h-33.1v147.5h33.1v-80.7c0-18.5,15.4-33.8,33.8-33.8s33.9,15.2,33.9,33.8v47.6Z"/>
  <path d="M1078.1-2183.5c7.4-11.4,19.9-18.7,34.3-18.7s26.7,7.4,34.1,18.4c0,.2.2.2.2.3h-68.5ZM1112.3-2087.7c25.7,0,48.3-13.4,61.7-33.1l-27.6-18.5c-7.3,11.2-19.9,18.5-34.1,18.5s-34.4-12.5-39.1-29.7h111.9c.5-3.5.8-7.3.8-11,0-7.5-1.2-15-3.3-21.9-2-6.7-5-13-8.7-18.7-13.4-19.9-35.9-33.1-61.7-33.1s-29.1,4.5-40.6,12.2c-14,9.4-24.6,23.2-29.9,39.6-2,6.9-3.2,14.4-3.2,21.9s.3,7.5.7,11c3.3,21.2,15.4,39.3,32.4,50.5,11.5,7.9,25.6,12.4,40.6,12.4Z"/>
  <path d="M1261.4-2120.8c-22.4,0-40.6-18.2-40.6-40.8s18.2-40.6,40.6-40.6,26.7,7.4,34.1,18.4l27.6-18.4c-13.4-19.9-35.9-33.1-61.7-33.1s-29.1,4.5-40.6,12.2c-20.1,13.2-33.1,35.9-33.1,61.5s13,48.3,33.1,61.5c11.5,7.9,25.6,12.4,40.6,12.4,25.7,0,48.3-13.4,61.7-33.1l-27.6-18.5c-7.3,11.2-19.9,18.5-34.1,18.5Z"/>
  <path d="M1324.7-2161.6v-113.5h33.1v39.8h33.3v33.1h-33.3v40.6c0,22.6,18,40.8,40.6,40.8v33.1c-15,0-29.1-4.5-40.6-12.4-19.9-13.2-33.1-35.8-33.1-61.5Z"/>
  <path class="st22" d="M1143.9-2063.9c7.1,0,12.9,2.2,17.4,6.6,4.5,4.4,6.7,10.1,6.7,17s-2.2,12.9-6.7,17.4c-4.5,4.5-10.3,6.7-17.4,6.7s-12.6-2.2-17.1-6.7c-4.5-4.5-6.7-10.3-6.7-17.4s2.2-12.6,6.7-17c4.5-4.4,10.2-6.6,17.1-6.6Z"/>
  <path d="M1156.9-2031.8v-9.9c0-4,2.9-6.5,6-6.5s5.2,1.9,5.2,6.2v10.1h3.2v-10.2c0-6-2.6-9.1-7.6-9.1s-5.9,1.8-6.9,4.2v-3.6h-3v18.8h3.2Z"/>
  <path d="M1175.5-2054.2c1.4,0,2.2-.9,2.2-2s-.8-2-2.2-2-2.2.9-2.2,2,.8,2,2.1,2ZM1177.1-2031.8v-18.8h-3.2v18.8h3.2Z"/>
  <path d="M1188-2031.2c4.5,0,7.9-2.8,9-6.8h-3.2c-1,2.6-3.2,3.9-5.7,3.9s-6.4-2.6-6.4-7,3.2-6.9,6.4-6.9,4.7,1.3,5.7,3.7h3.3c-1.1-3.9-4.5-6.7-9-6.7s-9.6,4.4-9.6,9.9,4.2,9.9,9.6,9.9Z"/>
  <path d="M1215.2-2041.6c0-5-3.9-9.5-9.3-9.5s-9.6,4.4-9.6,9.9,4.1,9.9,9.6,9.9,7.6-2.7,8.7-6.2h-3.6c-.8,2.1-2.7,3.2-5.2,3.2s-5.9-2.4-6.3-6.1h15.6c0-.7,0-1,0-1.3ZM1199.7-2043.1c.7-3.2,3.3-5,6.1-5s5.9,2.3,6.1,5h-12.2Z"/>
  <path d="M1233-2031.8v-2.7h-2.8c-1.7,0-3.4-.6-3.4-4.1v-9.2h6.2v-2.8h-6.2v-5.6h-3.2v5.6h-4.2v2.8h4.2v9c0,5.9,3.1,7,5.9,7h3.5Z"/>
  <path d="M1242.1-2031.2c5.6,0,9.8-4.4,9.8-9.9s-4.2-9.9-9.8-9.9-9.8,4.4-9.8,9.9,4.2,9.9,9.8,9.9ZM1242.1-2034.2c-3.7,0-6.6-2.9-6.6-6.9s2.9-6.9,6.6-6.9,6.6,3,6.6,6.9-2.9,6.9-6.6,6.9Z"/>
  <path d="M1282.2-2051.1c-2.9,0-5.4,1.6-6.9,4.8-1-3.2-3.2-4.8-6.6-4.8s-5.5,1.8-6.5,4.2v-3.6h-3v18.8h3.1v-9.9c0-3.8,2.6-6.5,5.5-6.5s4.8,1.9,4.8,6.2v10.1h3.1v-9.9c0-3.8,2.6-6.5,5.5-6.5s4.8,1.9,4.8,6.2v10.1h3.1v-10.2c0-6-2.5-9.1-7.1-9.1Z"/>
  <path d="M1309.5-2041.6c0-5.2-3.8-9.7-9.5-9.7s-9.8,4.5-9.8,10,4.1,10,9.8,10,8.1-3.1,9-6.5h-4.9c-.6,1.6-2,2.5-4.3,2.5s-4.8-1.8-5.3-4.9h14.8c0-.7,0-1,0-1.5ZM1294.8-2043.5c.8-2.7,2.9-3.9,5.1-3.9s4.8,1.8,5,3.9h-10.1Z"/>
  <path d="M1327.9-2041.6c0-5.2-3.8-9.7-9.5-9.7s-9.8,4.5-9.8,10,4.1,10,9.8,10,8.1-3.1,9-6.5h-4.9c-.6,1.6-2,2.5-4.3,2.5s-4.8-1.8-5.3-4.9h14.8c0-.7,0-1,0-1.5ZM1313.2-2043.5c.8-2.7,2.9-3.9,5.1-3.9s4.8,1.8,5,3.9h-10.1Z"/>
  <path d="M1339.4-2031.8v-2.7h-2.8c-1.7,0-3.4-.6-3.4-4.1v-9.2h6.2v-2.8h-6.2v-5.6h-3.2v5.6h-4.2v2.8h4.2v9c0,5.9,3.1,7,5.9,7h3.5Z"/>
  <path d="M1347.4-2025.4c4.1,0,5.5-1.6,7.6-6.9l7.4-18.3h-3.4s-5.3,13.3-5.3,13.3l-.5,1.6-.4-1.7-5.3-13.3h-3.4l7.5,18.2-.2.5c-1,2.6-1.7,3.8-4,3.8h-3.1v2.7h3.1Z"/>
  <path d="M1370.7-2031.2c5.6,0,9.8-4.4,9.8-9.9s-4.2-9.9-9.8-9.9-9.8,4.4-9.8,9.9,4.2,9.9,9.8,9.9ZM1370.7-2034.2c-3.7,0-6.6-2.9-6.6-6.9s2.9-6.9,6.6-6.9,6.6,3,6.6,6.9-2.9,6.9-6.6,6.9Z"/>
  <path d="M1389.8-2031.2c4.9,0,8.5-2.8,8.5-9.3v-10h-3.2v9.9c0,4.2-1.9,6.4-5.4,6.4s-5.4-2.2-5.4-6.4v-9.9h-3.1v10c0,6.5,3.6,9.3,8.6,9.3Z"/>
  <g>
    <g class="st23">
      <path class="st22" d="M-3870.7-837.7h-154.4c-54.1,0-98.3,44.3-98.3,98.5s44.2,98.5,98.3,98.5h154.4c54.1,0,98.3-44.3,98.3-98.5s-44.2-98.5-98.3-98.5ZM-3870.7-654.8c-46.3,0-84.2-38-84.2-84.4s37.9-84.4,84.2-84.4,84.2,38,84.2,84.4-37.9,84.4-84.2,84.4Z"/>
    </g>
    <path class="st21" d="M-4027.9-692.5c-25.7,0-46.5-20.9-46.5-46.7s20.9-46.5,46.5-46.5,30.7,8.4,39.1,21.1l31.6-21.1c-15.3-22.8-41.2-37.9-70.7-37.9s-33.3,5.2-46.5,14c-23,15.1-37.9,41.2-37.9,70.5s14.9,55.4,37.9,70.5c13.2,9,29.3,14.2,46.5,14.2,29.5,0,55.4-15.3,70.7-37.9l-31.6-21.3c-8.4,12.8-22.8,21.3-39.1,21.3Z"/>
    <path class="st21" d="M-3824.3-809.7c-13.2-8.8-29.3-14-46.4-14-46.9,0-84.7,37.9-84.7,84.5s37.7,84.7,84.7,84.7,33.1-5.2,46.4-14.2c23-15.1,37.9-41,37.9-70.5s-14.9-55.4-37.9-70.5ZM-3917.4-739.2c0-25.7,20.9-46.5,46.7-46.5s46.4,20.9,46.4,46.5-20.9,46.7-46.4,46.7-46.7-20.9-46.7-46.7Z"/>
    <path class="st21" d="M-3669-692.5v37.9h37.9v-92.5c0-28-15.3-52.7-37.9-65.9-11.5-6.9-24.7-10.7-38.9-10.7s-27.2,3.8-38.7,10.7v-10.7h-37.9v169.1h37.9v-92.5c0-21.3,17.6-38.7,38.7-38.7s38.9,17.4,38.9,38.7v54.6Z"/>
    <path class="st21" d="M-3513.6-692.5v37.9h37.9v-92.5c0-28-15.3-52.7-37.9-65.9-11.5-6.9-24.7-10.7-38.9-10.7s-27.2,3.8-38.7,10.7v-10.7h-37.9v169.1h37.9v-92.5c0-21.3,17.6-38.7,38.7-38.7s38.9,17.4,38.9,38.7v54.6Z"/>
    <path class="st21" d="M-3428.6-764.3c8.4-13,22.8-21.5,39.3-21.5s30.7,8.4,39.1,21.1c0,.2.2.2.2.4h-78.5ZM-3389.3-654.5c29.5,0,55.4-15.3,70.7-37.9l-31.6-21.3c-8.4,12.8-22.8,21.3-39.1,21.3s-39.5-14.4-44.8-34.1h128.3c.6-4,1-8.4,1-12.6,0-8.6-1.3-17.2-3.8-25.1-2.3-7.7-5.7-14.9-10-21.5-15.3-22.8-41.2-37.9-70.7-37.9s-33.3,5.2-46.5,14c-16.1,10.7-28.2,26.6-34.3,45.4-2.3,7.8-3.6,16.5-3.6,25.1s.4,8.6.8,12.6c3.8,24.3,17.6,45,37.2,57.8,13.2,9,29.3,14.2,46.5,14.2Z"/>
    <path class="st21" d="M-3218.5-692.5c-25.7,0-46.5-20.9-46.5-46.7s20.9-46.5,46.5-46.5,30.7,8.4,39.1,21.1l31.6-21.1c-15.3-22.8-41.2-37.9-70.7-37.9s-33.3,5.2-46.5,14c-23,15.1-37.9,41.2-37.9,70.5s14.9,55.4,37.9,70.5c13.2,9,29.3,14.2,46.5,14.2,29.5,0,55.4-15.3,70.7-37.9l-31.6-21.3c-8.4,12.8-22.8,21.3-39.1,21.3Z"/>
    <path class="st21" d="M-3145.9-739.2v-130.1h37.9v45.6h38.1v37.9h-38.1v46.5c0,25.9,20.7,46.7,46.5,46.7v37.9c-17.2,0-33.3-5.2-46.5-14.2-22.8-15.1-37.9-41-37.9-70.5Z"/>
    <path class="st21" d="M-3018-655.2h-8.7c-3.6,0-5.7-2.5-5.7-5.3s1.7-4.6,5.5-4.6h9v-2.8h-9c-5.3,0-8.1,2.3-8.1,6.7s1.6,5.2,3.7,6.1h-3.2v2.7h16.6v-2.8Z"/>
    <path class="st21" d="M-3037.9-671.6c0-1.2-.8-1.9-1.8-1.9s-1.8.7-1.8,1.9.8,1.9,1.8,1.9,1.8-.7,1.8-1.9ZM-3018-673.1h-16.6v2.8h16.6v-2.8Z"/>
    <path class="st21" d="M-3017.5-682.7c0-3.9-2.5-7-6.1-8v2.9c2.3.9,3.4,2.8,3.4,5.1s-2.3,5.7-6.2,5.7-6.2-2.8-6.2-5.7,1.1-4.2,3.3-5.1v-2.9c-3.4,1-5.9,4-5.9,8s3.9,8.5,8.8,8.5,8.8-3.7,8.8-8.5Z"/>
    <path class="st21" d="M-3026.7-706.8c-4.5,0-8.4,3.4-8.4,8.2s3.9,8.5,8.8,8.5,8.8-3.7,8.8-8.5-2.4-6.8-5.5-7.7v3.1c1.9.7,2.9,2.4,2.9,4.6s-2.1,5.2-5.4,5.6v-13.8c-.6,0-.8,0-1.1,0ZM-3028.1-693.1c-2.9-.6-4.4-3-4.4-5.4s2-5.2,4.4-5.4v10.8Z"/>
    <path class="st21" d="M-3018-722.6h-2.4v2.5c0,1.5-.6,3-3.7,3h-8.1v-5.5h-2.5v5.5h-5v2.8h5v3.7h2.5v-3.7h8c5.2,0,6.2-2.7,6.2-5.2v-3.1Z"/>
    <path class="st21" d="M-3017.5-730.6c0-5-3.9-8.7-8.8-8.7s-8.8,3.7-8.8,8.7,3.9,8.6,8.8,8.6,8.8-3.7,8.8-8.6ZM-3020.2-730.6c0,3.3-2.6,5.9-6.1,5.9s-6.2-2.6-6.2-5.9,2.6-5.8,6.2-5.8,6.1,2.5,6.1,5.8Z"/>
    <path class="st21" d="M-3035.1-766.1c0,2.6,1.4,4.8,4.3,6.1-2.8.9-4.3,2.8-4.3,5.8s1.6,4.9,3.7,5.7h-3.2v2.7h16.6v-2.8h-8.7c-3.4,0-5.7-2.3-5.7-4.9s1.7-4.3,5.5-4.3h9v-2.8h-8.7c-3.4,0-5.7-2.3-5.7-4.9s1.7-4.3,5.5-4.3h9v-2.8h-9c-5.3,0-8.1,2.2-8.1,6.3Z"/>
    <path class="st21" d="M-3026.7-790.3c-4.6,0-8.6,3.4-8.6,8.4s4,8.7,8.9,8.7,8.9-3.7,8.9-8.7-2.8-7.2-5.8-8v4.3c1.4.6,2.3,1.8,2.3,3.8s-1.6,4.2-4.3,4.6v-13.1c-.6,0-.9,0-1.3,0ZM-3028.4-777.3c-2.4-.7-3.4-2.6-3.4-4.5s1.6-4.3,3.4-4.4v9Z"/>
    <path class="st21" d="M-3026.7-806.7c-4.6,0-8.6,3.4-8.6,8.4s4,8.7,8.9,8.7,8.9-3.7,8.9-8.7-2.8-7.2-5.8-8v4.3c1.4.6,2.3,1.8,2.3,3.8s-1.6,4.2-4.3,4.6v-13.1c-.6,0-.9,0-1.3,0ZM-3028.4-793.6c-2.4-.7-3.4-2.6-3.4-4.5s1.6-4.3,3.4-4.4v9Z"/>
    <path class="st21" d="M-3018-816.9h-2.4v2.5c0,1.5-.6,3-3.7,3h-8.1v-5.5h-2.5v5.5h-5v2.8h5v3.7h2.5v-3.7h8c5.2,0,6.2-2.7,6.2-5.2v-3.1Z"/>
    <path class="st21" d="M-3012.3-823.9c0-3.6-1.4-4.9-6.1-6.7l-16.2-6.6v3s11.8,4.7,11.8,4.7l1.5.4-1.5.4-11.8,4.7v3l16.1-6.6.5.2c2.3.9,3.3,1.5,3.3,3.5v2.8h2.4v-2.7Z"/>
    <path class="st21" d="M-3017.5-844.5c0-5-3.9-8.7-8.8-8.7s-8.8,3.7-8.8,8.7,3.9,8.6,8.8,8.6,8.8-3.7,8.8-8.6ZM-3020.2-844.6c0,3.3-2.6,5.9-6.1,5.9s-6.2-2.6-6.2-5.9,2.6-5.8,6.2-5.8,6.1,2.5,6.1,5.8Z"/>
    <path class="st21" d="M-3017.5-861.5c0-4.3-2.4-7.5-8.2-7.5h-8.9v2.8h8.8c3.8,0,5.7,1.7,5.7,4.8s-1.9,4.8-5.7,4.8h-8.8v2.8h8.9c5.8,0,8.2-3.2,8.2-7.6Z"/>
  </g>
  <g>
    <path class="st22" d="M555.3-729.7c-22.4,0-40.6-18.2-40.6-40.8s18.2-40.6,40.6-40.6,26.7,7.4,34.1,18.4l27.6-18.4c-13.4-19.9-35.9-33.1-61.7-33.1s-29.1,4.5-40.6,12.2c-20.1,13.2-33.1,35.9-33.1,61.5s13,48.3,33.1,61.5c11.5,7.9,25.6,12.4,40.6,12.4,25.7,0,48.3-13.4,61.7-33.1l-27.6-18.5c-7.3,11.2-19.9,18.5-34.1,18.5Z"/>
    <path class="st22" d="M732.9-832c-11.5-7.7-25.6-12.2-40.4-12.2-40.9,0-73.9,33.1-73.9,73.7s32.9,73.9,73.9,73.9,28.9-4.5,40.4-12.4c20-13.2,33.1-35.8,33.1-61.5s-13-48.3-33.1-61.5ZM651.7-770.5c0-22.4,18.2-40.6,40.8-40.6s40.4,18.2,40.4,40.6-18.2,40.8-40.4,40.8-40.8-18.2-40.8-40.8Z"/>
    <path class="st22" d="M868.4-729.7v33.1h33.1v-80.7c0-24.4-13.4-46-33.1-57.5-10-6-21.6-9.4-33.9-9.4s-23.7,3.3-33.8,9.4v-9.4h-33.1v147.5h33.1v-80.7c0-18.5,15.4-33.8,33.8-33.8s33.9,15.2,33.9,33.8v47.6Z"/>
    <path class="st22" d="M1003.9-729.7v33.1h33.1v-80.7c0-24.4-13.4-46-33.1-57.5-10-6-21.6-9.4-33.9-9.4s-23.7,3.3-33.8,9.4v-9.4h-33.1v147.5h33.1v-80.7c0-18.5,15.4-33.8,33.8-33.8s33.9,15.2,33.9,33.8v47.6Z"/>
    <path class="st22" d="M1078.1-792.4c7.4-11.4,19.9-18.7,34.3-18.7s26.7,7.4,34.1,18.4c0,.2.2.2.2.3h-68.5ZM1112.3-696.6c25.7,0,48.3-13.4,61.7-33.1l-27.6-18.5c-7.3,11.2-19.9,18.5-34.1,18.5s-34.4-12.5-39.1-29.7h111.9c.5-3.5.8-7.3.8-11,0-7.5-1.2-15-3.3-21.9-2-6.7-5-13-8.7-18.7-13.4-19.9-35.9-33.1-61.7-33.1s-29.1,4.5-40.6,12.2c-14,9.4-24.6,23.2-29.9,39.6-2,6.9-3.2,14.4-3.2,21.9s.3,7.5.7,11c3.3,21.2,15.4,39.3,32.4,50.5,11.5,7.9,25.6,12.4,40.6,12.4Z"/>
    <path class="st22" d="M1261.4-729.7c-22.4,0-40.6-18.2-40.6-40.8s18.2-40.6,40.6-40.6,26.7,7.4,34.1,18.4l27.6-18.4c-13.4-19.9-35.9-33.1-61.7-33.1s-29.1,4.5-40.6,12.2c-20.1,13.2-33.1,35.9-33.1,61.5s13,48.3,33.1,61.5c11.5,7.9,25.6,12.4,40.6,12.4,25.7,0,48.3-13.4,61.7-33.1l-27.6-18.5c-7.3,11.2-19.9,18.5-34.1,18.5Z"/>
    <path class="st22" d="M1324.7-770.5v-113.5h33.1v39.8h33.3v33.1h-33.3v40.6c0,22.6,18,40.8,40.6,40.8v33.1c-15,0-29.1-4.5-40.6-12.4-19.9-13.2-33.1-35.8-33.1-61.5Z"/>
    <path class="st22" d="M1143.9-672.7c7.1,0,12.9,2.2,17.4,6.6,4.5,4.4,6.7,10.1,6.7,17s-2.2,12.9-6.7,17.4c-4.5,4.5-10.3,6.7-17.4,6.7s-12.6-2.2-17.1-6.7c-4.5-4.5-6.7-10.3-6.7-17.4s2.2-12.6,6.7-17c4.5-4.4,10.2-6.6,17.1-6.6Z"/>
    <path class="st21" d="M1156.9-640.7v-9.9c0-4,2.9-6.5,6-6.5s5.2,1.9,5.2,6.2v10.1h3.2v-10.2c0-6-2.6-9.1-7.6-9.1s-5.9,1.8-6.9,4.2v-3.6h-3v18.8h3.2Z"/>
    <path class="st21" d="M1175.5-663.1c1.4,0,2.2-.9,2.2-2s-.8-2-2.2-2-2.2.9-2.2,2,.8,2,2.1,2ZM1177.1-640.7v-18.8h-3.2v18.8h3.2Z"/>
    <path class="st21" d="M1188-640.1c4.5,0,7.9-2.8,9-6.8h-3.2c-1,2.6-3.2,3.9-5.7,3.9s-6.4-2.6-6.4-7,3.2-6.9,6.4-6.9,4.7,1.3,5.7,3.7h3.3c-1.1-3.9-4.5-6.7-9-6.7s-9.6,4.4-9.6,9.9,4.2,9.9,9.6,9.9Z"/>
    <path class="st21" d="M1215.2-650.5c0-5-3.9-9.5-9.3-9.5s-9.6,4.4-9.6,9.9,4.1,9.9,9.6,9.9,7.6-2.7,8.7-6.2h-3.6c-.8,2.1-2.7,3.2-5.2,3.2s-5.9-2.4-6.3-6.1h15.6c0-.7,0-1,0-1.3ZM1199.8-652c.7-3.2,3.3-5,6.1-5s5.9,2.3,6.1,5h-12.2Z"/>
    <path class="st21" d="M1233-640.7v-2.7h-2.8c-1.7,0-3.4-.6-3.4-4.1v-9.2h6.2v-2.8h-6.2v-5.6h-3.2v5.6h-4.2v2.8h4.2v9c0,5.9,3.1,7,5.9,7h3.5Z"/>
    <path class="st21" d="M1242.1-640.1c5.6,0,9.8-4.4,9.8-9.9s-4.2-9.9-9.8-9.9-9.8,4.4-9.8,9.9,4.2,9.9,9.8,9.9ZM1242.1-643.1c-3.7,0-6.6-2.9-6.6-6.9s2.9-6.9,6.6-6.9,6.6,3,6.6,6.9-2.9,6.9-6.6,6.9Z"/>
    <path class="st21" d="M1282.2-660c-2.9,0-5.4,1.6-6.9,4.8-1-3.2-3.2-4.8-6.6-4.8s-5.5,1.8-6.5,4.2v-3.6h-3v18.8h3.1v-9.9c0-3.8,2.6-6.5,5.5-6.5s4.8,1.9,4.8,6.2v10.1h3.1v-9.9c0-3.8,2.6-6.5,5.5-6.5s4.8,1.9,4.8,6.2v10.1h3.1v-10.2c0-6-2.5-9.1-7.1-9.1Z"/>
    <path class="st21" d="M1309.5-650.4c0-5.2-3.8-9.7-9.5-9.7s-9.8,4.5-9.8,10,4.1,10,9.8,10,8.1-3.1,9-6.5h-4.9c-.6,1.6-2,2.5-4.3,2.5s-4.8-1.8-5.3-4.9h14.8c0-.7,0-1,0-1.5ZM1294.8-652.4c.8-2.7,2.9-3.9,5.1-3.9s4.8,1.8,5,3.9h-10.1Z"/>
    <path class="st21" d="M1327.9-650.4c0-5.2-3.8-9.7-9.5-9.7s-9.8,4.5-9.8,10,4.1,10,9.8,10,8.1-3.1,9-6.5h-4.9c-.6,1.6-2,2.5-4.3,2.5s-4.8-1.8-5.3-4.9h14.8c0-.7,0-1,0-1.5ZM1313.2-652.4c.8-2.7,2.9-3.9,5.1-3.9s4.8,1.8,5,3.9h-10.1Z"/>
    <path class="st21" d="M1339.4-640.7v-2.7h-2.8c-1.7,0-3.4-.6-3.4-4.1v-9.2h6.2v-2.8h-6.2v-5.6h-3.2v5.6h-4.2v2.8h4.2v9c0,5.9,3.1,7,5.9,7h3.5Z"/>
    <path class="st21" d="M1347.4-634.2c4.1,0,5.5-1.6,7.6-6.9l7.4-18.3h-3.4s-5.3,13.3-5.3,13.3l-.5,1.6-.4-1.7-5.3-13.3h-3.4l7.5,18.2-.2.5c-1,2.6-1.7,3.8-4,3.8h-3.1v2.7h3.1Z"/>
    <path class="st21" d="M1370.7-640.1c5.6,0,9.8-4.4,9.8-9.9s-4.2-9.9-9.8-9.9-9.8,4.4-9.8,9.9,4.2,9.9,9.8,9.9ZM1370.7-643.1c-3.7,0-6.6-2.9-6.6-6.9s2.9-6.9,6.6-6.9,6.6,3,6.6,6.9-2.9,6.9-6.6,6.9Z"/>
    <path class="st21" d="M1389.8-640.1c4.9,0,8.5-2.8,8.5-9.3v-10h-3.2v9.9c0,4.2-1.9,6.4-5.4,6.4s-5.4-2.2-5.4-6.4v-9.9h-3.1v10c0,6.5,3.6,9.3,8.6,9.3Z"/>
  </g>
  <rect x="-4528.4" y="-3.3" width="1920" height="1086.7"/>
  <g>
    <path class="st21" d="M-4174.6,585.5c-16.8,0-30.5-13.7-30.5-30.7s13.7-30.5,30.5-30.5,20.1,5.5,25.6,13.8l20.7-13.8c-10.1-15-27-24.9-46.4-24.9s-21.9,3.4-30.5,9.2c-15.1,9.9-24.9,27-24.9,46.2s9.8,36.3,24.9,46.2c8.7,5.9,19.2,9.3,30.5,9.3,19.3,0,36.3-10.1,46.4-24.9l-20.7-13.9c-5.5,8.4-14.9,13.9-25.6,13.9Z"/>
    <path class="st21" d="M-4041,508.7c-8.7-5.8-19.2-9.2-30.4-9.2-30.8,0-55.5,24.9-55.5,55.4s24.8,55.5,55.5,55.5,21.7-3.4,30.4-9.3c15.1-9.9,24.9-26.9,24.9-46.2s-9.8-36.3-24.9-46.2ZM-4102.1,554.9c0-16.8,13.7-30.5,30.7-30.5s30.4,13.7,30.4,30.5-13.7,30.7-30.4,30.7-30.7-13.7-30.7-30.7Z"/>
    <path class="st21" d="M-3939.1,585.5v24.9h24.9v-60.7c0-18.3-10-34.5-24.9-43.2-7.5-4.5-16.2-7-25.5-7s-17.8,2.5-25.4,7v-7h-24.9v110.9h24.9v-60.7c0-13.9,11.6-25.4,25.4-25.4s25.5,11.4,25.5,25.4v35.8Z"/>
    <path class="st21" d="M-3837.2,585.5v24.9h24.9v-60.7c0-18.3-10-34.5-24.9-43.2-7.5-4.5-16.2-7-25.5-7s-17.8,2.5-25.4,7v-7h-24.9v110.9h24.9v-60.7c0-13.9,11.6-25.4,25.4-25.4s25.5,11.4,25.5,25.4v35.8Z"/>
    <path class="st21" d="M-3781.5,538.4c5.5-8.5,15-14.1,25.8-14.1s20.1,5.5,25.6,13.8c0,.1.1.1.1.3h-51.5ZM-3755.7,610.4c19.3,0,36.3-10.1,46.4-24.9l-20.7-13.9c-5.5,8.4-14.9,13.9-25.6,13.9s-25.9-9.4-29.4-22.4h84.2c.4-2.6.6-5.5.6-8.3,0-5.7-.9-11.3-2.5-16.5-1.5-5-3.8-9.8-6.5-14.1-10.1-15-27-24.9-46.4-24.9s-21.9,3.4-30.5,9.2c-10.6,7-18.5,17.5-22.5,29.8-1.5,5.2-2.4,10.8-2.4,16.5s.3,5.7.5,8.3c2.5,16,11.6,29.5,24.4,37.9,8.7,5.9,19.2,9.3,30.5,9.3Z"/>
    <path class="st21" d="M-3643.7,585.5c-16.8,0-30.5-13.7-30.5-30.7s13.7-30.5,30.5-30.5,20.1,5.5,25.6,13.8l20.7-13.8c-10.1-15-27-24.9-46.4-24.9s-21.9,3.4-30.5,9.2c-15.1,9.9-24.9,27-24.9,46.2s9.8,36.3,24.9,46.2c8.7,5.9,19.2,9.3,30.5,9.3,19.3,0,36.3-10.1,46.4-24.9l-20.7-13.9c-5.5,8.4-14.9,13.9-25.6,13.9Z"/>
    <path class="st21" d="M-3596.1,554.9v-85.3h24.9v29.9h25v24.9h-25v30.5c0,17,13.6,30.7,30.5,30.7v24.9c-11.3,0-21.9-3.4-30.5-9.3-14.9-9.9-24.9-26.9-24.9-46.2Z"/>
    <path class="st21" d="M-3059.2,540.4v-11.1c0-4.5,3.2-7.3,6.7-7.3s5.9,2.1,5.9,7v11.4h3.5v-11.4c0-6.7-2.9-10.2-8.5-10.2s-6.6,2-7.8,4.7v-4.1h-3.4v21.1h3.5Z"/>
    <path class="st21" d="M-3038.4,515.2c1.5,0,2.5-1,2.5-2.3s-.9-2.3-2.4-2.3-2.4,1-2.4,2.3.9,2.3,2.4,2.3ZM-3036.6,540.4v-21.1h-3.5v21.1h3.5Z"/>
    <path class="st21" d="M-3024.4,541c5,0,8.9-3.1,10.1-7.7h-3.6c-1.1,2.9-3.6,4.3-6.4,4.3s-7.2-3-7.2-7.8,3.5-7.8,7.2-7.8,5.3,1.4,6.4,4.2h3.7c-1.3-4.4-5.1-7.5-10.1-7.5s-10.8,5-10.8,11.1,4.7,11.1,10.8,11.1Z"/>
    <path class="st21" d="M-2993.8,529.3c0-5.7-4.3-10.6-10.4-10.6s-10.7,5-10.7,11.1,4.6,11.1,10.7,11.1,8.5-3.1,9.7-6.9h-4c-.9,2.4-3,3.6-5.8,3.6s-6.6-2.6-7-6.9h17.5c0-.8,0-1.1,0-1.4ZM-3011.2,527.6c.8-3.6,3.7-5.6,6.9-5.6s6.6,2.6,6.8,5.6h-13.7Z"/>
    <path class="st21" d="M-2973.8,540.4v-3h-3.2c-1.9,0-3.8-.7-3.8-4.6v-10.3h7v-3.1h-7v-6.3h-3.6v6.3h-4.7v3.1h4.7v10.1c0,6.6,3.4,7.8,6.6,7.8h3.9Z"/>
    <path class="st21" d="M-2963.7,541c6.3,0,11-4.9,11-11.1s-4.7-11.1-11-11.1-10.9,5-10.9,11.1,4.7,11.1,10.9,11.1ZM-2963.7,537.6c-4.2,0-7.4-3.3-7.4-7.8s3.2-7.8,7.4-7.8,7.4,3.3,7.4,7.8-3.2,7.8-7.4,7.8Z"/>
    <path class="st21" d="M-3037.1,558.7c-3.3,0-6.1,1.8-7.7,5.4-1.1-3.6-3.6-5.4-7.3-5.4s-6.2,2-7.2,4.7v-4.1h-3.4v21.1h3.5v-11.1c0-4.3,2.9-7.3,6.2-7.3s5.4,2.1,5.4,7v11.4h3.5v-11.1c0-4.3,3-7.3,6.2-7.3s5.4,2.1,5.4,7v11.4h3.5v-11.4c0-6.7-2.8-10.2-8-10.2Z"/>
    <path class="st21" d="M-3006.4,569.4c0-5.8-4.3-10.9-10.7-10.9s-11,5.1-11,11.3,4.6,11.3,11,11.3,9.1-3.5,10.1-7.3h-5.4c-.7,1.8-2.3,2.8-4.8,2.8s-5.4-2-5.9-5.5h16.6c0-.8,0-1.2,0-1.7ZM-3022.9,567.2c.8-3,3.2-4.4,5.8-4.4s5.4,2,5.6,4.4h-11.4Z"/>
    <path class="st21" d="M-2985.8,569.4c0-5.8-4.3-10.9-10.7-10.9s-11,5.1-11,11.3,4.6,11.3,11,11.3,9.1-3.5,10.1-7.3h-5.4c-.7,1.8-2.3,2.8-4.8,2.8s-5.4-2-5.9-5.5h16.6c0-.8,0-1.2,0-1.7ZM-3002.2,567.2c.8-3,3.2-4.4,5.8-4.4s5.4,2,5.6,4.4h-11.4Z"/>
    <path class="st21" d="M-2972.8,580.4v-3h-3.2c-1.9,0-3.8-.7-3.8-4.6v-10.3h7v-3.1h-7v-6.3h-3.6v6.3h-4.7v3.1h4.7v10.1c0,6.6,3.4,7.8,6.6,7.8h3.9Z"/>
    <path class="st21" d="M-2963.9,587.6c4.6,0,6.2-1.8,8.5-7.8l8.3-20.5h-3.8s-5.9,14.9-5.9,14.9l-.5,1.8-.5-1.9-6-14.9h-3.8l8.4,20.4-.2.6c-1.1,2.9-1.9,4.2-4.5,4.2h-3.5v3h3.5Z"/>
    <path class="st21" d="M-2937.8,581c6.3,0,11-4.9,11-11.1s-4.7-11.1-11-11.1-10.9,5-10.9,11.1,4.7,11.1,10.9,11.1ZM-2937.7,577.6c-4.2,0-7.4-3.3-7.4-7.8s3.2-7.8,7.4-7.8,7.4,3.3,7.4,7.8-3.2,7.8-7.4,7.8Z"/>
    <path class="st21" d="M-2916.3,581c5.5,0,9.6-3.1,9.6-10.4v-11.2h-3.5v11.1c0,4.7-2.2,7.2-6,7.2s-6-2.4-6-7.2v-11.1h-3.5v11.2c0,7.3,4,10.4,9.6,10.4Z"/>
    <g class="st12">
      <path class="st21" d="M-3191.7,523.7v51c0,17.9,14.6,32.5,32.5,32.5s32.5-14.6,32.5-32.5v-51c0-17.9-14.6-32.5-32.5-32.5s-32.5,14.6-32.5,32.5ZM-3131.3,523.7c0,15.3-12.5,27.8-27.9,27.8s-27.9-12.5-27.9-27.8,12.5-27.8,27.9-27.8,27.9,12.5,27.9,27.8Z"/>
    </g>
    <path class="st1" d="M-3370.9,491.2v116"/>
  </g>
  <g>
    <path d="M-1958.7,585.5c-16.8,0-30.5-13.7-30.5-30.7s13.7-30.5,30.5-30.5,20.1,5.5,25.6,13.8l20.7-13.8c-10.1-15-27-24.9-46.4-24.9s-21.9,3.4-30.5,9.2c-15.1,9.9-24.9,27-24.9,46.2s9.8,36.3,24.9,46.2c8.7,5.9,19.2,9.3,30.5,9.3,19.3,0,36.3-10.1,46.4-24.9l-20.7-13.9c-5.5,8.4-14.9,13.9-25.6,13.9Z"/>
    <path d="M-1825.2,508.7c-8.7-5.8-19.2-9.2-30.4-9.2-30.8,0-55.5,24.9-55.5,55.4s24.8,55.5,55.5,55.5,21.7-3.4,30.4-9.3c15.1-9.9,24.9-26.9,24.9-46.2s-9.8-36.3-24.9-46.2ZM-1886.3,554.9c0-16.8,13.7-30.5,30.7-30.5s30.4,13.7,30.4,30.5-13.7,30.7-30.4,30.7-30.7-13.7-30.7-30.7Z"/>
    <path d="M-1723.3,585.5v24.9h24.9v-60.7c0-18.3-10-34.5-24.9-43.2-7.5-4.5-16.2-7-25.5-7s-17.8,2.5-25.4,7v-7h-24.9v110.9h24.9v-60.7c0-13.9,11.6-25.4,25.4-25.4s25.5,11.4,25.5,25.4v35.8Z"/>
    <path d="M-1621.4,585.5v24.9h24.9v-60.7c0-18.3-10-34.5-24.9-43.2-7.5-4.5-16.2-7-25.5-7s-17.8,2.5-25.4,7v-7h-24.9v110.9h24.9v-60.7c0-13.9,11.6-25.4,25.4-25.4s25.5,11.4,25.5,25.4v35.8Z"/>
    <path d="M-1565.7,538.4c5.5-8.5,15-14.1,25.8-14.1s20.1,5.5,25.6,13.8c0,.1.1.1.1.3h-51.5ZM-1539.9,610.4c19.3,0,36.3-10.1,46.4-24.9l-20.7-13.9c-5.5,8.4-14.9,13.9-25.6,13.9s-25.9-9.4-29.4-22.4h84.2c.4-2.6.6-5.5.6-8.3,0-5.7-.9-11.3-2.5-16.5-1.5-5-3.8-9.8-6.5-14.1-10.1-15-27-24.9-46.4-24.9s-21.9,3.4-30.5,9.2c-10.6,7-18.5,17.5-22.5,29.8-1.5,5.2-2.4,10.8-2.4,16.5s.3,5.7.5,8.3c2.5,16,11.6,29.5,24.4,37.9,8.7,5.9,19.2,9.3,30.5,9.3Z"/>
    <path d="M-1427.9,585.5c-16.8,0-30.5-13.7-30.5-30.7s13.7-30.5,30.5-30.5,20.1,5.5,25.6,13.8l20.7-13.8c-10.1-15-27-24.9-46.4-24.9s-21.9,3.4-30.5,9.2c-15.1,9.9-24.9,27-24.9,46.2s9.8,36.3,24.9,46.2c8.7,5.9,19.2,9.3,30.5,9.3,19.3,0,36.3-10.1,46.4-24.9l-20.7-13.9c-5.5,8.4-14.9,13.9-25.6,13.9Z"/>
    <path d="M-1380.2,554.9v-85.3h24.9v29.9h25v24.9h-25v30.5c0,17,13.6,30.7,30.5,30.7v24.9c-11.3,0-21.9-3.4-30.5-9.3-14.9-9.9-24.9-26.9-24.9-46.2Z"/>
    <path class="st2" d="M-1155.1,491.2v116"/>
    <path d="M-843.4,540.4v-11.1c0-4.5,3.2-7.3,6.7-7.3s5.9,2.1,5.9,7v11.4h3.5v-11.4c0-6.7-2.9-10.2-8.5-10.2s-6.6,2-7.8,4.7v-4.1h-3.4v21.1h3.5Z"/>
    <path d="M-822.6,515.2c1.5,0,2.5-1,2.5-2.3s-.9-2.3-2.4-2.3-2.4,1-2.4,2.3.9,2.3,2.4,2.3ZM-820.8,540.4v-21.1h-3.5v21.1h3.5Z"/>
    <path d="M-808.6,541c5,0,8.9-3.1,10.1-7.7h-3.6c-1.1,2.9-3.6,4.3-6.4,4.3s-7.2-3-7.2-7.8,3.5-7.8,7.2-7.8,5.3,1.4,6.4,4.2h3.7c-1.3-4.4-5.1-7.5-10.1-7.5s-10.8,5-10.8,11.1,4.7,11.1,10.8,11.1Z"/>
    <path d="M-778,529.3c0-5.7-4.3-10.6-10.4-10.6s-10.7,5-10.7,11.1,4.6,11.1,10.7,11.1,8.5-3.1,9.7-6.9h-4c-.9,2.4-3,3.6-5.8,3.6s-6.6-2.6-7-6.9h17.5c0-.8,0-1.1,0-1.4ZM-795.4,527.6c.8-3.6,3.7-5.6,6.9-5.6s6.6,2.6,6.8,5.6h-13.7Z"/>
    <path d="M-758,540.4v-3h-3.2c-1.9,0-3.8-.7-3.8-4.6v-10.3h7v-3.1h-7v-6.3h-3.6v6.3h-4.7v3.1h4.7v10.1c0,6.6,3.4,7.8,6.6,7.8h3.9Z"/>
    <path d="M-747.9,541c6.3,0,11-4.9,11-11.1s-4.7-11.1-11-11.1-10.9,5-10.9,11.1,4.7,11.1,10.9,11.1ZM-747.8,537.6c-4.2,0-7.4-3.3-7.4-7.8s3.2-7.8,7.4-7.8,7.4,3.3,7.4,7.8-3.2,7.8-7.4,7.8Z"/>
    <path d="M-821.3,558.7c-3.3,0-6.1,1.8-7.7,5.4-1.1-3.6-3.6-5.4-7.3-5.4s-6.2,2-7.2,4.7v-4.1h-3.4v21.1h3.5v-11.1c0-4.3,2.9-7.3,6.2-7.3s5.4,2.1,5.4,7v11.4h3.5v-11.1c0-4.3,3-7.3,6.2-7.3s5.4,2.1,5.4,7v11.4h3.5v-11.4c0-6.7-2.8-10.2-8-10.2Z"/>
    <path d="M-790.6,569.4c0-5.8-4.3-10.9-10.7-10.9s-11,5.1-11,11.3,4.6,11.3,11,11.3,9.1-3.5,10.1-7.3h-5.4c-.7,1.8-2.3,2.8-4.8,2.8s-5.4-2-5.9-5.5h16.6c0-.8,0-1.2,0-1.7ZM-807.1,567.2c.8-3,3.2-4.4,5.8-4.4s5.4,2,5.6,4.4h-11.4Z"/>
    <path d="M-770,569.4c0-5.8-4.3-10.9-10.7-10.9s-11,5.1-11,11.3,4.6,11.3,11,11.3,9.1-3.5,10.1-7.3h-5.4c-.7,1.8-2.3,2.8-4.8,2.8s-5.4-2-5.9-5.5h16.6c0-.8,0-1.2,0-1.7ZM-786.4,567.2c.8-3,3.2-4.4,5.8-4.4s5.4,2,5.6,4.4h-11.4Z"/>
    <path d="M-757,580.4v-3h-3.2c-1.9,0-3.8-.7-3.8-4.6v-10.3h7v-3.1h-7v-6.3h-3.6v6.3h-4.7v3.1h4.7v10.1c0,6.6,3.4,7.8,6.6,7.8h3.9Z"/>
    <path d="M-748.1,587.6c4.6,0,6.2-1.8,8.5-7.8l8.3-20.5h-3.8s-5.9,14.9-5.9,14.9l-.5,1.8-.5-1.9-6-14.9h-3.8l8.4,20.4-.2.6c-1.1,2.9-1.9,4.2-4.5,4.2h-3.5v3h3.5Z"/>
    <path d="M-722,581c6.3,0,11-4.9,11-11.1s-4.7-11.1-11-11.1-10.9,5-10.9,11.1,4.7,11.1,10.9,11.1ZM-721.9,577.6c-4.2,0-7.4-3.3-7.4-7.8s3.2-7.8,7.4-7.8,7.4,3.3,7.4,7.8-3.2,7.8-7.4,7.8Z"/>
    <path d="M-700.5,581c5.5,0,9.6-3.1,9.6-10.4v-11.2h-3.5v11.1c0,4.7-2.2,7.2-6,7.2s-6-2.4-6-7.2v-11.1h-3.5v11.2c0,7.3,4,10.4,9.6,10.4Z"/>
    <g class="st15">
      <path d="M-929.3,575v-51c0-17.9-14.6-32.5-32.5-32.5s-32.5,14.6-32.5,32.5v51c0,17.9,14.6,32.5,32.5,32.5s32.5-14.6,32.5-32.5ZM-989.6,575c0-15.3,12.5-27.8,27.9-27.8s27.9,12.5,27.9,27.8-12.5,27.8-27.9,27.8-27.9-12.5-27.9-27.8Z"/>
    </g>
  </g>
  <rect x="88.4" y="1800.4" width="1920" height="1086.7"/>
  <g>
    <path class="st21" d="M1079.8,2717.3h-30.9c-12.6,0-20.3-8.9-20.3-18.7s5.9-16.4,19.5-16.4h31.7v-9.9h-31.9c-18.8,0-28.6,8.2-28.6,23.8s5.5,18.3,13,21.7h-11.4v9.5h58.8v-9.9Z"/>
    <path class="st21" d="M1009.5,2659c0-4.3-2.8-6.9-6.3-6.9s-6.3,2.6-6.3,6.8,2.8,6.7,6.3,6.7,6.3-2.6,6.3-6.7ZM1079.8,2653.9h-58.8v9.9h58.8v-9.9Z"/>
    <path class="st21" d="M1081.5,2619.9c0-14-8.7-24.8-21.4-28.1v10.2c8.1,3.1,12.1,10,12.1,17.9s-8.2,20.2-21.8,20.2-21.7-9.9-21.7-20.2,4-14.9,11.6-17.9v-10.2c-12.2,3.5-20.9,14.2-20.9,28.2s13.9,30,31.1,30,31.1-13,31.1-30Z"/>
    <path class="st21" d="M1049,2534.5c-15.8,0-29.6,12.1-29.6,29.1s13.9,29.9,31.1,29.9,31-12.9,31-29.9-8.5-23.9-19.3-27.2v11.1c6.6,2.6,10.1,8.4,10.1,16.3s-7.4,18.5-19.2,19.7v-48.8c-2.1-.1-3-.2-4-.2ZM1044.2,2583c-10.2-2.3-15.6-10.4-15.6-19.3s7.2-18.5,15.6-19.1v38.3Z"/>
    <path class="st21" d="M1079.8,2478.7h-8.4v8.9c0,5.2-2,10.6-12.9,10.6h-28.8v-19.4h-8.7v19.4h-17.5v9.9h17.5v13.1h8.7v-13.1h28.3c18.3,0,21.8-9.6,21.8-18.5v-10.8Z"/>
    <path class="st21" d="M1081.5,2450.3c0-17.6-13.8-30.7-31.1-30.7s-31.1,13.2-31.1,30.7,13.9,30.6,31.1,30.6,31.1-13.1,31.1-30.6ZM1072.2,2450.2c0,11.7-9.2,20.8-21.7,20.8s-21.7-9.1-21.7-20.8,9.3-20.7,21.7-20.7,21.7,9,21.7,20.7Z"/>
    <path class="st21" d="M1019.3,2324.6c0,9.1,5.1,17.1,15.1,21.6-10,3.1-15.1,10-15.1,20.5s5.7,17.2,13,20.2h-11.4v9.5h58.8v-9.8h-30.9c-12,0-20.3-8.3-20.3-17.2s5.9-15.1,19.5-15.1h31.7v-9.8h-30.9c-12,0-20.3-8.2-20.3-17.2s6-15.2,19.5-15.2h31.7v-9.9h-31.9c-18.8,0-28.6,7.7-28.6,22.3Z"/>
    <path class="st22" d="M1049.1,2238.9c-16.3,0-30.4,12-30.4,29.9s14.1,30.7,31.4,30.7,31.4-12.9,31.4-30.7-9.7-25.3-20.4-28.3v15.2c5,2,8,6.3,8,13.4s-5.6,15-15.3,16.4v-46.3c-2.2-.2-3.2-.3-4.7-.3ZM1043.1,2284.9c-8.4-2.4-12.2-9.1-12.2-16.1s5.5-15.1,12.2-15.7v31.8Z"/>
    <path class="st22" d="M1049.1,2181.2c-16.3,0-30.4,12-30.4,29.9s14.1,30.7,31.4,30.7,31.4-12.9,31.4-30.7-9.7-25.3-20.4-28.3v15.2c5,2,8,6.3,8,13.4s-5.6,15-15.3,16.4v-46.3c-2.2-.2-3.2-.3-4.7-.3ZM1043.1,2227.2c-8.4-2.4-12.2-9.1-12.2-16.1s5.5-15.1,12.2-15.7v31.8Z"/>
    <path class="st21" d="M1079.8,2145h-8.4v8.9c0,5.2-2,10.6-12.9,10.6h-28.8v-19.4h-8.7v19.4h-17.5v9.9h17.5v13.1h8.7v-13.1h28.3c18.3,0,21.8-9.6,21.8-18.5v-10.8Z"/>
    <path class="st21" d="M1099.9,2119.9c0-12.7-5.1-17.2-21.7-23.9l-57.2-23.2v10.6c0,0,41.6,16.6,41.6,16.6l5.1,1.5-5.2,1.4-41.6,16.7v10.6l57.1-23.4,1.7.6c8,3.1,11.8,5.4,11.8,12.5v9.7h8.4v-9.7Z"/>
    <path class="st21" d="M1081.5,2047c0-17.6-13.8-30.7-31.1-30.7s-31.1,13.2-31.1,30.7,13.9,30.6,31.1,30.6,31.1-13.1,31.1-30.6ZM1072.2,2046.9c0,11.7-9.2,20.8-21.7,20.8s-21.7-9.1-21.7-20.8,9.3-20.7,21.7-20.7,21.7,9,21.7,20.7Z"/>
    <path class="st21" d="M1081.5,1987.1c0-15.3-8.7-26.7-29.1-26.7h-31.4v9.9h31.1c13.3,0,20,6.1,20,16.9s-6.8,16.9-20,16.9h-31.1v9.9h31.4c20.4,0,29.1-11.2,29.1-26.9Z"/>
  </g>
  <g>
    <path d="M3573.5,2717.3h-30.9c-12.6,0-20.3-8.9-20.3-18.7s5.9-16.4,19.5-16.4h31.7v-9.9h-31.9c-18.8,0-28.6,8.2-28.6,23.8s5.5,18.3,13,21.7h-11.4v9.5h58.8v-9.9Z"/>
    <path d="M3503.2,2659c0-4.3-2.8-6.9-6.3-6.9s-6.3,2.6-6.3,6.8,2.8,6.7,6.3,6.7,6.3-2.6,6.3-6.7ZM3573.5,2653.9h-58.8v9.9h58.8v-9.9Z"/>
    <path d="M3575.2,2619.9c0-14-8.7-24.8-21.4-28.1v10.2c8.1,3.1,12.1,10,12.1,17.9s-8.2,20.2-21.8,20.2-21.7-9.9-21.7-20.2,4-14.9,11.6-17.9v-10.2c-12.2,3.5-20.9,14.2-20.9,28.2s13.9,30,31.1,30,31.1-13,31.1-30Z"/>
    <path d="M3542.6,2534.5c-15.8,0-29.6,12.1-29.6,29.1s13.9,29.9,31.1,29.9,31-12.9,31-29.9-8.5-23.9-19.3-27.2v11.1c6.6,2.6,10.1,8.4,10.1,16.3s-7.4,18.5-19.2,19.7v-48.8c-2.1-.1-3-.2-4-.2ZM3537.9,2583c-10.2-2.3-15.6-10.4-15.6-19.3s7.2-18.5,15.6-19.1v38.3Z"/>
    <path d="M3573.5,2478.7h-8.4v8.9c0,5.2-2,10.6-12.9,10.6h-28.8v-19.4h-8.7v19.4h-17.5v9.9h17.5v13.1h8.7v-13.1h28.3c18.3,0,21.8-9.6,21.8-18.5v-10.8Z"/>
    <path d="M3575.2,2450.3c0-17.6-13.8-30.7-31.1-30.7s-31.1,13.2-31.1,30.7,13.9,30.6,31.1,30.6,31.1-13.1,31.1-30.6ZM3565.8,2450.2c0,11.7-9.2,20.8-21.7,20.8s-21.7-9.1-21.7-20.8,9.3-20.7,21.7-20.7,21.7,9,21.7,20.7Z"/>
    <path d="M3513,2324.6c0,9.1,5.1,17.1,15.1,21.6-10,3.1-15.1,10-15.1,20.5s5.7,17.2,13,20.2h-11.4v9.5h58.8v-9.8h-30.9c-12,0-20.3-8.3-20.3-17.2s5.9-15.1,19.5-15.1h31.7v-9.8h-30.9c-12,0-20.3-8.2-20.3-17.2s6-15.2,19.5-15.2h31.7v-9.9h-31.9c-18.8,0-28.6,7.7-28.6,22.3Z"/>
    <path class="st22" d="M3542.8,2238.9c-16.3,0-30.4,12-30.4,29.9s14.1,30.7,31.4,30.7,31.4-12.9,31.4-30.7-9.7-25.3-20.4-28.3v15.2c5,2,8,6.3,8,13.4s-5.6,15-15.3,16.4v-46.3c-2.2-.2-3.2-.3-4.7-.3ZM3536.8,2284.9c-8.4-2.4-12.2-9.1-12.2-16.1s5.5-15.1,12.2-15.7v31.8Z"/>
    <path class="st22" d="M3542.8,2181.2c-16.3,0-30.4,12-30.4,29.9s14.1,30.7,31.4,30.7,31.4-12.9,31.4-30.7-9.7-25.3-20.4-28.3v15.2c5,2,8,6.3,8,13.4s-5.6,15-15.3,16.4v-46.3c-2.2-.2-3.2-.3-4.7-.3ZM3536.8,2227.2c-8.4-2.4-12.2-9.1-12.2-16.1s5.5-15.1,12.2-15.7v31.8Z"/>
    <path d="M3573.5,2145h-8.4v8.9c0,5.2-2,10.6-12.9,10.6h-28.8v-19.4h-8.7v19.4h-17.5v9.9h17.5v13.1h8.7v-13.1h28.3c18.3,0,21.8-9.6,21.8-18.5v-10.8Z"/>
    <path d="M3593.6,2119.9c0-12.7-5.1-17.2-21.7-23.9l-57.2-23.2v10.6c0,0,41.6,16.6,41.6,16.6l5.1,1.5-5.2,1.4-41.6,16.7v10.6l57.1-23.4,1.7.6c8,3.1,11.8,5.4,11.8,12.5v9.7h8.4v-9.7Z"/>
    <path d="M3575.2,2047c0-17.6-13.8-30.7-31.1-30.7s-31.1,13.2-31.1,30.7,13.9,30.6,31.1,30.6,31.1-13.1,31.1-30.6ZM3565.8,2046.9c0,11.7-9.2,20.8-21.7,20.8s-21.7-9.1-21.7-20.8,9.3-20.7,21.7-20.7,21.7,9,21.7,20.7Z"/>
    <path d="M3575.2,1987.1c0-15.3-8.7-26.7-29.1-26.7h-31.4v9.9h31.1c13.3,0,20,6.1,20,16.9s-6.8,16.9-20,16.9h-31.1v9.9h31.4c20.4,0,29.1-11.2,29.1-26.9Z"/>
  </g>
  <g>
    <g class="st13">
      <path class="st24" d="M-1728.5,4239.4v216.5c0,75.8,62.1,137.8,138.1,137.8s138.1-62,138.1-137.8v-216.5c0-75.8-62.1-137.8-138.1-137.8s-138.1,62-138.1,137.8ZM-1472,4239.4c0,64.9-53.3,118.1-118.4,118.1s-118.4-53.1-118.4-118.1,53.3-118.1,118.4-118.1,118.4,53.1,118.4,118.1Z"/>
    </g>
    <g class="st14">
      <path class="st24" d="M-1169.3,4459.7v-216.5c0-75.8-62.1-137.7-138.1-137.7s-138.1,62-138.1,137.7v216.5c0,75.8,62.1,137.8,138.1,137.8s138.1-62,138.1-137.8ZM-1425.8,4459.7c0-64.9,53.3-118.1,118.4-118.1s118.4,53.1,118.4,118.1-53.3,118.1-118.4,118.1-118.4-53.1-118.4-118.1Z"/>
    </g>
    <path d="M-1725.4,4759.3v-23.4c0-9.5,6.8-15.4,14.2-15.4s12.4,4.5,12.4,14.7v24h7.5v-24.1c0-14.2-6.2-21.6-18-21.6s-13.9,4.1-16.4,9.9v-8.6h-7.2v44.5h7.5Z"/>
    <path d="M-1681.3,4706.2c3.2,0,5.2-2.1,5.2-4.8s-2-4.8-5.2-4.8-5.1,2.1-5.1,4.8,2,4.8,5.1,4.8ZM-1677.5,4759.3v-44.5h-7.5v44.5h7.5Z"/>
    <path d="M-1651.8,4760.6c10.6,0,18.8-6.6,21.3-16.2h-7.7c-2.3,6.1-7.6,9.2-13.6,9.2s-15.3-6.2-15.3-16.5,7.5-16.4,15.3-16.4,11.3,3,13.6,8.8h7.7c-2.7-9.2-10.7-15.8-21.3-15.8s-22.7,10.5-22.7,23.5,9.9,23.5,22.7,23.5Z"/>
    <path d="M-1587.2,4736c0-12-9.2-22.4-22-22.4s-22.6,10.5-22.6,23.5,9.8,23.5,22.6,23.5,18.1-6.5,20.6-14.6h-8.4c-2,5-6.4,7.6-12.4,7.6s-14-5.6-14.9-14.5h36.9c0-1.6.1-2.3.1-3.1ZM-1623.9,4732.4c1.7-7.7,7.9-11.8,14.6-11.8s14,5.4,14.4,11.8h-29Z"/>
    <path d="M-1545,4759.3v-6.4h-6.7c-4,0-8-1.5-8-9.8v-21.8h14.7v-6.6h-14.7v-13.3h-7.5v13.3h-9.9v6.6h9.9v21.4c0,13.9,7.2,16.5,14,16.5h8.2Z"/>
    <path d="M-1523.5,4760.6c13.3,0,23.2-10.4,23.2-23.5s-10-23.5-23.2-23.5-23.1,10.5-23.1,23.5,10,23.5,23.1,23.5ZM-1523.4,4753.5c-8.9,0-15.7-7-15.7-16.5s6.9-16.4,15.7-16.4,15.6,7.1,15.6,16.4-6.8,16.5-15.6,16.5Z"/>
    <path d="M-1428.4,4713.6c-6.9,0-12.9,3.8-16.4,11.4-2.3-7.5-7.5-11.4-15.5-11.4s-13,4.3-15.3,9.9v-8.6h-7.1v44.5h7.4v-23.4c0-9.1,6.2-15.4,13-15.4s11.4,4.5,11.4,14.7v24h7.4v-23.4c0-9.1,6.2-15.4,13-15.4s11.5,4.5,11.5,14.7v24h7.5v-24.1c0-14.2-5.8-21.6-16.9-21.6Z"/>
    <path d="M-1363.6,4736.1c0-12.3-9.1-23-22.6-23s-23.2,10.7-23.2,23.8,9.8,23.8,23.2,23.8,19.1-7.4,21.4-15.4h-11.5c-1.5,3.8-4.8,6-10.1,6s-11.3-4.2-12.4-11.6h35c.2-1.7.2-2.4.2-3.6ZM-1398.5,4731.6c1.8-6.3,6.8-9.2,12.2-9.2s11.4,4.2,11.9,9.2h-24Z"/>
    <path d="M-1320,4736.1c0-12.3-9.1-23-22.6-23s-23.2,10.7-23.2,23.8,9.8,23.8,23.2,23.8,19.1-7.4,21.4-15.4h-11.5c-1.5,3.8-4.8,6-10.1,6s-11.3-4.2-12.4-11.6h35c.2-1.7.2-2.4.2-3.6ZM-1354.8,4731.6c1.8-6.3,6.8-9.2,12.2-9.2s11.4,4.2,11.9,9.2h-24Z"/>
    <path d="M-1292.6,4759.3v-6.4h-6.7c-4,0-8-1.5-8-9.8v-21.8h14.7v-6.6h-14.7v-13.3h-7.5v13.3h-9.9v6.6h9.9v21.4c0,13.9,7.2,16.5,14,16.5h8.2Z"/>
    <path d="M-1273.7,4774.5c9.6,0,13-3.9,18.1-16.4l17.5-43.3h-8s-12.5,31.5-12.5,31.5l-1.1,3.9-1-3.9-12.6-31.5h-8l17.7,43.2-.5,1.3c-2.3,6.1-4.1,8.9-9.5,8.9h-7.4v6.3h7.3Z"/>
    <path d="M-1218.6,4760.6c13.3,0,23.2-10.4,23.2-23.5s-10-23.5-23.2-23.5-23.1,10.5-23.1,23.5,10,23.5,23.1,23.5ZM-1218.5,4753.5c-8.9,0-15.7-7-15.7-16.5s6.9-16.4,15.7-16.4,15.6,7.1,15.6,16.4-6.8,16.5-15.6,16.5Z"/>
    <path d="M-1173.2,4760.6c11.6,0,20.2-6.5,20.2-22v-23.8h-7.5v23.6c0,10-4.6,15.1-12.8,15.1s-12.8-5.2-12.8-15.1v-23.6h-7.5v23.8c0,15.4,8.5,22,20.3,22Z"/>
  </g>
  <g>
    <g class="st20">
      <path class="st21" d="M-1732.6,6194.6v219.6c0,76.9,63,139.7,140.1,139.7s140.1-62.9,140.1-139.7v-219.6c0-76.9-63-139.7-140.1-139.7s-140.1,62.9-140.1,139.7ZM-1472.5,6194.6c0,65.9-54,119.8-120.1,119.8s-120.1-53.9-120.1-119.8,54-119.8,120.1-119.8,120.1,53.9,120.1,119.8Z"/>
    </g>
    <g class="st17">
      <path class="st21" d="M-1165.4,6418.1v-219.6c0-76.9-63-139.7-140.1-139.7s-140.1,62.9-140.1,139.7v219.6c0,76.9,63,139.7,140.1,139.7s140.1-62.9,140.1-139.7ZM-1425.5,6418.1c0-65.9,54-119.8,120.1-119.8s120.1,53.9,120.1,119.8-54,119.8-120.1,119.8-120.1-53.9-120.1-119.8Z"/>
    </g>
    <path class="st21" d="M-1729.5,6722.1v-23.7c0-9.6,6.9-15.6,14.4-15.6s12.6,4.6,12.6,15v24.3h7.6v-24.5c0-14.4-6.3-22-18.3-22s-14.1,4.2-16.6,10v-8.7h-7.3v45.1h7.6Z"/>
    <path class="st21" d="M-1684.8,6668.1c3.3,0,5.3-2.2,5.3-4.9s-2-4.8-5.2-4.8-5.2,2.2-5.2,4.8,2,4.9,5.1,4.9ZM-1680.9,6722.1v-45.1h-7.6v45.1h7.6Z"/>
    <path class="st21" d="M-1654.8,6723.4c10.7,0,19-6.7,21.6-16.4h-7.8c-2.3,6.2-7.7,9.3-13.8,9.3s-15.5-6.3-15.5-16.7,7.6-16.7,15.5-16.7,11.4,3.1,13.8,8.9h7.8c-2.7-9.3-10.9-16.1-21.6-16.1s-23.1,10.7-23.1,23.9,10,23.9,23.1,23.9Z"/>
    <path class="st21" d="M-1589.3,6698.4c0-12.1-9.3-22.7-22.3-22.7s-23,10.7-23,23.9,9.9,23.8,23,23.8,18.3-6.5,20.9-14.8h-8.5c-2,5.1-6.5,7.7-12.5,7.7s-14.2-5.7-15.1-14.7h37.4c0-1.6.1-2.3.1-3.1ZM-1626.5,6694.8c1.7-7.8,8-11.9,14.8-11.9s14.2,5.5,14.6,11.9h-29.4Z"/>
    <path class="st21" d="M-1546.4,6722.1v-6.5h-6.8c-4,0-8.1-1.5-8.1-9.9v-22.1h14.9v-6.7h-14.9v-13.5h-7.6v13.5h-10.1v6.7h10.1v21.7c0,14.1,7.3,16.7,14.2,16.7h8.3Z"/>
    <path class="st21" d="M-1524.7,6723.4c13.5,0,23.5-10.6,23.5-23.9s-10.1-23.9-23.5-23.9-23.5,10.7-23.5,23.9,10.1,23.9,23.5,23.9ZM-1524.6,6716.2c-9,0-15.9-7.1-15.9-16.7s6.9-16.7,15.9-16.7,15.8,7.2,15.8,16.7-6.9,16.7-15.8,16.7Z"/>
    <path class="st21" d="M-1428.2,6675.7c-7,0-13.1,3.9-16.6,11.6-2.3-7.7-7.7-11.6-15.8-11.6s-13.2,4.3-15.5,10v-8.7h-7.3v45.1h7.5v-23.7c0-9.2,6.3-15.6,13.2-15.6s11.6,4.6,11.6,15v24.3h7.5v-23.7c0-9.2,6.3-15.6,13.2-15.6s11.6,4.6,11.6,15v24.3h7.6v-24.5c0-14.4-5.9-22-17.1-22Z"/>
    <path class="st21" d="M-1362.5,6698.5c0-12.5-9.2-23.3-22.9-23.3s-23.6,10.8-23.6,24.1,9.9,24.1,23.6,24.1,19.4-7.5,21.7-15.7h-11.7c-1.6,3.8-4.9,6.1-10.3,6.1s-11.5-4.3-12.6-11.7h35.5c.2-1.7.2-2.5.2-3.6ZM-1397.8,6693.9c1.8-6.4,6.9-9.3,12.3-9.3s11.6,4.3,12,9.3h-24.4Z"/>
    <path class="st21" d="M-1318.2,6698.5c0-12.5-9.2-23.3-22.9-23.3s-23.6,10.8-23.6,24.1,9.9,24.1,23.6,24.1,19.4-7.5,21.7-15.7h-11.7c-1.6,3.8-4.9,6.1-10.3,6.1s-11.5-4.3-12.6-11.7h35.5c.2-1.7.2-2.5.2-3.6ZM-1353.5,6693.9c1.8-6.4,6.9-9.3,12.3-9.3s11.6,4.3,12,9.3h-24.4Z"/>
    <path class="st21" d="M-1290.4,6722.1v-6.5h-6.8c-4,0-8.1-1.5-8.1-9.9v-22.1h14.9v-6.7h-14.9v-13.5h-7.6v13.5h-10.1v6.7h10.1v21.7c0,14.1,7.3,16.7,14.2,16.7h8.3Z"/>
    <path class="st21" d="M-1271.2,6737.5c9.8,0,13.2-3.9,18.3-16.6l17.8-43.9h-8.1s-12.7,32-12.7,32l-1.2,3.9-1.1-4-12.8-31.9h-8.1l17.9,43.8-.5,1.3c-2.4,6.2-4.2,9-9.6,9h-7.5v6.4h7.4Z"/>
    <path class="st21" d="M-1215.3,6723.4c13.5,0,23.5-10.6,23.5-23.9s-10.1-23.9-23.5-23.9-23.5,10.7-23.5,23.9,10.1,23.9,23.5,23.9ZM-1215.2,6716.2c-9,0-15.9-7.1-15.9-16.7s6.9-16.7,15.9-16.7,15.8,7.2,15.8,16.7-6.9,16.7-15.8,16.7Z"/>
    <path class="st21" d="M-1169.3,6723.4c11.8,0,20.5-6.6,20.5-22.3v-24.1h-7.6v23.9c0,10.2-4.6,15.4-13,15.4s-13-5.2-13-15.4v-23.9h-7.6v24.1c0,15.7,8.6,22.3,20.6,22.3Z"/>
  </g>
  <g>
    <g class="st16">
      <path d="M861.3,6059.2h-198.2c-69.4,0-126.2,56.9-126.2,126.5s56.8,126.5,126.2,126.5h198.2c69.4,0,126.1-56.9,126.1-126.5s-56.8-126.5-126.1-126.5ZM861.3,6294.1c-59.5,0-108.1-48.8-108.1-108.4s48.7-108.4,108.1-108.4,108.1,48.8,108.1,108.4-48.7,108.4-108.1,108.4Z"/>
    </g>
    <g class="st19">
      <path d="M659.5,6571.3h198.2c69.4,0,126.2-56.9,126.2-126.5s-56.8-126.5-126.2-126.5h-198.2c-69.4,0-126.1,56.9-126.1,126.5s56.8,126.5,126.1,126.5ZM659.5,6336.5c59.5,0,108.1,48.8,108.1,108.4s-48.7,108.4-108.1,108.4-108.1-48.8-108.1-108.4,48.7-108.4,108.1-108.4Z"/>
    </g>
    <path d="M501.7,6719.2v-21.4c0-8.7,6.2-14.1,13-14.1s11.4,4.1,11.4,13.5v22h6.9v-22.1c0-13-5.7-19.8-16.5-19.8s-12.7,3.8-15,9v-7.9h-6.6v40.8h6.9Z"/>
    <path d="M542.1,6670.5c3,0,4.8-2,4.8-4.4s-1.8-4.4-4.7-4.4-4.7,2-4.7,4.4,1.8,4.4,4.6,4.4ZM545.5,6719.2v-40.8h-6.9v40.8h6.9Z"/>
    <path d="M569.1,6720.4c9.7,0,17.2-6,19.5-14.8h-7c-2.1,5.6-6.9,8.4-12.4,8.4s-14-5.7-14-15.1,6.9-15.1,14-15.1,10.3,2.8,12.4,8h7.1c-2.4-8.4-9.8-14.5-19.5-14.5s-20.8,9.6-20.8,21.5,9,21.5,20.8,21.5Z"/>
    <path d="M628.3,6697.8c0-11-8.4-20.5-20.1-20.5s-20.7,9.6-20.7,21.5,8.9,21.5,20.7,21.5,16.5-5.9,18.9-13.4h-7.7c-1.8,4.6-5.8,7-11.3,7s-12.8-5.1-13.6-13.3h33.8c0-1.5.1-2.1.1-2.8ZM594.7,6694.6c1.6-7,7.2-10.8,13.3-10.8s12.8,5,13.2,10.8h-26.6Z"/>
    <path d="M667,6719.2v-5.8h-6.2c-3.6,0-7.3-1.4-7.3-8.9v-19.9h13.5v-6h-13.5v-12.1h-6.9v12.1h-9.1v6h9.1v19.6c0,12.7,6.6,15.1,12.8,15.1h7.5Z"/>
    <path d="M686.6,6720.4c12.2,0,21.3-9.6,21.3-21.5s-9.1-21.5-21.3-21.5-21.2,9.6-21.2,21.5,9.1,21.5,21.2,21.5ZM686.7,6713.9c-8.1,0-14.4-6.4-14.4-15.1s6.3-15.1,14.4-15.1,14.3,6.5,14.3,15.1-6.2,15.1-14.3,15.1Z"/>
    <path d="M773.7,6677.3c-6.3,0-11.8,3.5-15,10.5-2.1-6.9-6.9-10.5-14.2-10.5s-11.9,3.9-14,9v-7.9h-6.5v40.8h6.8v-21.4c0-8.3,5.7-14.1,11.9-14.1s10.5,4.1,10.5,13.5v22h6.8v-21.4c0-8.3,5.7-14.1,11.9-14.1s10.5,4.2,10.5,13.5v22h6.8v-22.1c0-13-5.4-19.8-15.5-19.8Z"/>
    <path d="M833,6698c0-11.3-8.3-21.1-20.7-21.1s-21.3,9.8-21.3,21.8,8.9,21.8,21.3,21.8,17.5-6.8,19.6-14.1h-10.5c-1.4,3.5-4.4,5.5-9.3,5.5s-10.4-3.9-11.4-10.6h32.1c.2-1.5.2-2.2.2-3.3ZM801.1,6693.8c1.6-5.8,6.3-8.4,11.1-8.4s10.5,3.8,10.9,8.4h-22Z"/>
    <path d="M873,6698c0-11.3-8.3-21.1-20.7-21.1s-21.3,9.8-21.3,21.8,8.9,21.8,21.3,21.8,17.5-6.8,19.6-14.1h-10.5c-1.4,3.5-4.4,5.5-9.3,5.5s-10.4-3.9-11.4-10.6h32.1c.2-1.5.2-2.2.2-3.3ZM841.1,6693.8c1.6-5.8,6.3-8.4,11.1-8.4s10.5,3.8,10.9,8.4h-22Z"/>
    <path d="M898.1,6719.2v-5.8h-6.2c-3.6,0-7.3-1.4-7.3-8.9v-19.9h13.5v-6h-13.5v-12.1h-6.9v12.1h-9.1v6h9.1v19.6c0,12.7,6.6,15.1,12.8,15.1h7.5Z"/>
    <path d="M915.4,6733.1c8.8,0,11.9-3.6,16.5-15l16.1-39.6h-7.3s-11.5,28.9-11.5,28.9l-1,3.6-1-3.6-11.5-28.8h-7.3l16.2,39.6-.4,1.2c-2.1,5.6-3.8,8.2-8.7,8.2h-6.8v5.8h6.7Z"/>
    <path d="M965.9,6720.4c12.2,0,21.3-9.6,21.3-21.5s-9.1-21.5-21.3-21.5-21.2,9.6-21.2,21.5,9.1,21.5,21.2,21.5ZM965.9,6713.9c-8.1,0-14.4-6.4-14.4-15.1s6.3-15.1,14.4-15.1,14.3,6.5,14.3,15.1-6.2,15.1-14.3,15.1Z"/>
    <path d="M1007.4,6720.4c10.6,0,18.5-6,18.5-20.1v-21.8h-6.9v21.6c0,9.2-4.2,13.9-11.7,13.9s-11.7-4.7-11.7-13.9v-21.6h-6.8v21.8c0,14.1,7.8,20.1,18.6,20.1Z"/>
  </g>
  <g>
    <g class="st18">
      <path d="M2782.9,6391h186.8c65.4,0,118.9-53.6,118.9-119.2s-53.5-119.2-118.9-119.2h-186.8c-65.4,0-118.9,53.6-118.9,119.2s53.5,119.2,118.9,119.2ZM2782.9,6169.7c56,0,101.9,46,101.9,102.2s-45.9,102.2-101.9,102.2-101.9-46-101.9-102.2,45.9-102.2,101.9-102.2Z"/>
    </g>
    <g class="st7">
      <path d="M2969.4,6394.9h-186.8c-65.4,0-118.9,53.6-118.9,119.2s53.5,119.2,118.9,119.2h186.8c65.4,0,118.9-53.6,118.9-119.2s-53.5-119.2-118.9-119.2ZM2969.4,6616.3c-56,0-101.9-46-101.9-102.2s45.9-102.2,101.9-102.2,101.9,46,101.9,102.2-45.9,102.2-101.9,102.2Z"/>
    </g>
    <path d="M2634.2,6770.3v-20.2c0-8.2,5.8-13.3,12.2-13.3s10.7,3.9,10.7,12.7v20.7h6.5v-20.8c0-12.3-5.3-18.7-15.5-18.7s-12,3.6-14.2,8.5v-7.4h-6.2v38.4h6.5Z"/>
    <path d="M2672.3,6724.4c2.8,0,4.5-1.8,4.5-4.1s-1.7-4.1-4.4-4.1-4.4,1.8-4.4,4.1,1.7,4.1,4.4,4.1ZM2675.5,6770.3v-38.4h-6.5v38.4h6.5Z"/>
    <path d="M2697.8,6771.4c9.1,0,16.2-5.7,18.4-14h-6.6c-2,5.3-6.5,7.9-11.7,7.9s-13.2-5.4-13.2-14.2,6.5-14.2,13.2-14.2,9.7,2.6,11.7,7.6h6.7c-2.3-7.9-9.3-13.7-18.4-13.7s-19.6,9.1-19.6,20.3,8.5,20.3,19.6,20.3Z"/>
    <path d="M2753.5,6750.2c0-10.3-7.9-19.4-19-19.4s-19.5,9.1-19.5,20.3,8.4,20.3,19.5,20.3,15.6-5.6,17.8-12.6h-7.3c-1.7,4.3-5.5,6.6-10.7,6.6s-12-4.8-12.8-12.5h31.9c0-1.4.1-2,.1-2.6ZM2721.9,6747.1c1.5-6.6,6.8-10.2,12.6-10.2s12.1,4.7,12.5,10.2h-25Z"/>
    <path d="M2790,6770.3v-5.5h-5.8c-3.4,0-6.9-1.3-6.9-8.4v-18.8h12.7v-5.7h-12.7v-11.4h-6.5v11.4h-8.6v5.7h8.6v18.5c0,12,6.2,14.2,12.1,14.2h7.1Z"/>
    <path d="M2808.5,6771.4c11.5,0,20-9,20-20.3s-8.6-20.3-20-20.3-20,9.1-20,20.3,8.6,20.3,20,20.3ZM2808.5,6765.3c-7.6,0-13.6-6-13.6-14.2s5.9-14.2,13.6-14.2,13.5,6.1,13.5,14.2-5.9,14.2-13.5,14.2Z"/>
    <path d="M2890.5,6730.8c-6,0-11.1,3.3-14.1,9.9-2-6.5-6.5-9.9-13.4-9.9s-11.3,3.7-13.2,8.5v-7.4h-6.2v38.4h6.4v-20.2c0-7.8,5.4-13.3,11.3-13.3s9.9,3.9,9.9,12.7v20.7h6.4v-20.2c0-7.8,5.4-13.3,11.2-13.3s9.9,3.9,9.9,12.7v20.7h6.4v-20.8c0-12.3-5-18.7-14.6-18.7Z"/>
    <path d="M2946.4,6750.3c0-10.7-7.8-19.8-19.5-19.8s-20.1,9.2-20.1,20.5,8.4,20.5,20.1,20.5,16.5-6.4,18.5-13.3h-9.9c-1.3,3.3-4.1,5.2-8.7,5.2s-9.8-3.6-10.7-10h30.2c.1-1.4.2-2.1.2-3.1ZM2916.4,6746.3c1.5-5.5,5.9-7.9,10.5-7.9s9.9,3.6,10.2,7.9h-20.7Z"/>
    <path d="M2984.1,6750.3c0-10.7-7.8-19.8-19.5-19.8s-20.1,9.2-20.1,20.5,8.4,20.5,20.1,20.5,16.5-6.4,18.5-13.3h-9.9c-1.3,3.3-4.1,5.2-8.7,5.2s-9.8-3.6-10.7-10h30.2c.1-1.4.2-2.1.2-3.1ZM2954.1,6746.3c1.5-5.5,5.9-7.9,10.5-7.9s9.9,3.6,10.2,7.9h-20.7Z"/>
    <path d="M3007.8,6770.3v-5.5h-5.8c-3.4,0-6.9-1.3-6.9-8.4v-18.8h12.7v-5.7h-12.7v-11.4h-6.5v11.4h-8.6v5.7h8.6v18.5c0,12,6.2,14.2,12.1,14.2h7.1Z"/>
    <path d="M3024.1,6783.4c8.3,0,11.3-3.4,15.6-14.2l15.1-37.4h-6.9s-10.8,27.2-10.8,27.2l-1,3.4-.9-3.4-10.9-27.2h-6.9l15.2,37.3-.4,1.1c-2,5.2-3.5,7.7-8.2,7.7h-6.4v5.5h6.3Z"/>
    <path d="M3071.7,6771.4c11.5,0,20-9,20-20.3s-8.6-20.3-20-20.3-20,9.1-20,20.3,8.6,20.3,20,20.3ZM3071.7,6765.3c-7.6,0-13.6-6-13.6-14.2s5.9-14.2,13.6-14.2,13.5,6.1,13.5,14.2-5.9,14.2-13.5,14.2Z"/>
    <path d="M3110.8,6771.4c10,0,17.4-5.6,17.4-19v-20.5h-6.5v20.3c0,8.7-3.9,13.1-11,13.1s-11-4.4-11-13.1v-20.3h-6.4v20.5c0,13.3,7.3,19,17.5,19Z"/>
  </g>
  <rect x="-109.2" y="3618.1" width="1739.2" height="1640"/>
  <g>
    <g class="st4">
      <path d="M2751,4500.4h249.6c87.4,0,158.8-71.7,158.8-159.2s-71.5-159.2-158.8-159.2h-249.6c-87.4,0-158.8,71.6-158.8,159.2s71.5,159.2,158.8,159.2ZM2751,4204.7c74.9,0,136.2,61.4,136.2,136.5s-61.3,136.5-136.2,136.5-136.2-61.4-136.2-136.5,61.3-136.5,136.2-136.5Z"/>
    </g>
    <path d="M2552.3,4676.7v-27c0-11,7.8-17.7,16.3-17.7s14.3,5.2,14.3,17v27.7h8.7v-27.8c0-16.4-7.1-25-20.8-25s-16,4.8-18.9,11.4v-9.9h-8.3v51.3h8.6Z"/>
    <path d="M2603.1,4615.4c3.7,0,6-2.5,6-5.5s-2.3-5.5-5.9-5.5-5.9,2.5-5.9,5.5,2.3,5.5,5.8,5.5ZM2607.5,4676.7v-51.3h-8.6v51.3h8.6Z"/>
    <path d="M2637.2,4678.2c12.2,0,21.6-7.6,24.6-18.7h-8.9c-2.7,7-8.7,10.6-15.6,10.6s-17.6-7.2-17.6-19,8.7-19,17.6-19,13,3.5,15.6,10.1h8.9c-3.1-10.6-12.4-18.3-24.6-18.3s-26.2,12.1-26.2,27.1,11.4,27.1,26.2,27.1Z"/>
    <path d="M2711.7,4649.8c0-13.8-10.6-25.9-25.3-25.9s-26.1,12.1-26.1,27.1,11.3,27.1,26.1,27.1,20.8-7.4,23.7-16.9h-9.7c-2.3,5.8-7.4,8.8-14.2,8.8s-16.1-6.4-17.1-16.7h42.6c.1-1.9.1-2.6.1-3.5ZM2669.4,4645.7c2-8.9,9.1-13.6,16.8-13.6s16.2,6.3,16.6,13.6h-33.4Z"/>
    <path d="M2760.4,4676.7v-7.3h-7.7c-4.6,0-9.2-1.7-9.2-11.3v-25.1h17v-7.6h-17v-15.3h-8.7v15.3h-11.4v7.6h11.4v24.7c0,16,8.3,19,16.2,19h9.5Z"/>
    <path d="M2785.1,4678.2c15.3,0,26.8-12,26.8-27.1s-11.5-27.1-26.8-27.1-26.7,12.1-26.7,27.1,11.5,27.1,26.7,27.1ZM2785.2,4670.1c-10.2,0-18.1-8.1-18.1-19s7.9-19,18.1-19,18,8.1,18,19-7.8,19-18,19Z"/>
    <path d="M2894.7,4624c-8,0-14.9,4.4-18.9,13.2-2.7-8.7-8.7-13.2-17.9-13.2s-15,4.9-17.7,11.4v-9.9h-8.2v51.3h8.6v-27c0-10.5,7.2-17.7,15-17.7s13.2,5.2,13.2,17v27.7h8.6v-27c0-10.5,7.2-17.7,15-17.7s13.2,5.2,13.2,17v27.7h8.6v-27.8c0-16.4-6.7-25-19.5-25Z"/>
    <path d="M2969.5,4650c0-14.2-10.5-26.5-26.1-26.5s-26.8,12.3-26.8,27.4,11.3,27.4,26.8,27.4,22.1-8.5,24.7-17.8h-13.3c-1.8,4.4-5.5,6.9-11.7,6.9s-13.1-4.9-14.3-13.3h40.4c.2-1.9.2-2.8.2-4.1ZM2929.3,4644.7c2.1-7.3,7.9-10.6,14-10.6s13.2,4.8,13.7,10.6h-27.7Z"/>
    <path d="M3019.8,4650c0-14.2-10.5-26.5-26.1-26.5s-26.8,12.3-26.8,27.4,11.3,27.4,26.8,27.4,22.1-8.5,24.7-17.8h-13.3c-1.8,4.4-5.5,6.9-11.7,6.9s-13.1-4.9-14.3-13.3h40.4c.2-1.9.2-2.8.2-4.1ZM2979.7,4644.7c2.1-7.3,7.9-10.6,14-10.6s13.2,4.8,13.7,10.6h-27.7Z"/>
    <path d="M3051.4,4676.7v-7.3h-7.7c-4.6,0-9.2-1.7-9.2-11.3v-25.1h17v-7.6h-17v-15.3h-8.7v15.3h-11.4v7.6h11.4v24.7c0,16,8.3,19,16.2,19h9.5Z"/>
    <path d="M3073.2,4694.3c11.1,0,15-4.5,20.8-18.9l20.2-49.9h-9.2c0,0-14.4,36.3-14.4,36.3l-1.3,4.5-1.2-4.5-14.5-36.3h-9.2l20.4,49.8-.5,1.5c-2.7,7-4.7,10.3-10.9,10.3h-8.5v7.3h8.5Z"/>
    <path d="M3136.7,4678.2c15.3,0,26.8-12,26.8-27.1s-11.5-27.1-26.8-27.1-26.7,12.1-26.7,27.1,11.5,27.1,26.7,27.1ZM3136.8,4670.1c-10.2,0-18.1-8.1-18.1-19s7.9-19,18.1-19,18,8.1,18,19-7.8,19-18,19Z"/>
    <path d="M3189,4678.2c13.4,0,23.3-7.5,23.3-25.4v-27.4h-8.7v27.2c0,11.6-5.3,17.5-14.7,17.5s-14.7-5.9-14.7-17.5v-27.2h-8.6v27.4c0,17.8,9.8,25.4,23.4,25.4Z"/>
  </g>
  <g>
    <g class="st11">
      <path class="st21" d="M637.1,4498.6h242.4c84.8,0,154.2-69.6,154.2-154.6s-69.4-154.6-154.2-154.6h-242.4c-84.8,0-154.2,69.6-154.2,154.6s69.4,154.6,154.2,154.6ZM637.1,4211.5c72.7,0,132.2,59.6,132.2,132.5s-59.5,132.5-132.2,132.5-132.2-59.6-132.2-132.5,59.5-132.5,132.2-132.5Z"/>
    </g>
    <path class="st21" d="M444.1,4669.8v-26.2c0-10.7,7.6-17.2,15.9-17.2s13.9,5,13.9,16.5v26.9h8.4v-27c0-15.9-6.9-24.2-20.2-24.2s-15.5,4.6-18.4,11v-9.6h-8.1v49.8h8.4Z"/>
    <path class="st21" d="M493.4,4610.3c3.6,0,5.8-2.4,5.8-5.4s-2.2-5.3-5.8-5.3-5.7,2.4-5.7,5.3,2.2,5.4,5.7,5.4ZM497.7,4669.8v-49.8h-8.4v49.8h8.4Z"/>
    <path class="st21" d="M526.6,4671.3c11.8,0,21-7.4,23.8-18.1h-8.6c-2.6,6.8-8.5,10.3-15.2,10.3s-17.1-7-17.1-18.5,8.4-18.4,17.1-18.4,12.6,3.4,15.2,9.8h8.6c-3-10.3-12-17.7-23.9-17.7s-25.4,11.8-25.4,26.3,11,26.3,25.4,26.3Z"/>
    <path class="st21" d="M598.9,4643.7c0-13.4-10.3-25.1-24.6-25.1s-25.4,11.8-25.4,26.3,10.9,26.3,25.4,26.3,20.2-7.2,23.1-16.4h-9.4c-2.2,5.6-7.1,8.5-13.8,8.5s-15.6-6.3-16.7-16.3h41.3c.1-1.8.1-2.5.1-3.4ZM557.8,4639.7c1.9-8.6,8.8-13.2,16.3-13.2s15.7,6.1,16.2,13.2h-32.5Z"/>
    <path class="st21" d="M646.2,4669.8v-7.1h-7.5c-4.4,0-8.9-1.7-8.9-10.9v-24.4h16.5v-7.4h-16.5v-14.8h-8.4v14.8h-11.1v7.4h11.1v24c0,15.5,8.1,18.5,15.7,18.5h9.2Z"/>
    <path class="st21" d="M670.2,4671.3c14.9,0,26-11.7,26-26.3s-11.1-26.3-26-26.3-25.9,11.8-25.9,26.3,11.1,26.3,25.9,26.3ZM670.3,4663.3c-9.9,0-17.6-7.8-17.6-18.4s7.7-18.4,17.6-18.4,17.5,7.9,17.5,18.4-7.6,18.4-17.5,18.4Z"/>
    <path class="st21" d="M776.6,4618.6c-7.7,0-14.5,4.3-18.3,12.8-2.6-8.4-8.4-12.8-17.4-12.8s-14.6,4.8-17.2,11v-9.6h-8v49.8h8.3v-26.2c0-10.2,7-17.2,14.6-17.2s12.8,5,12.8,16.5v26.9h8.3v-26.2c0-10.2,7-17.2,14.6-17.2s12.8,5.1,12.8,16.5v26.9h8.4v-27c0-15.9-6.5-24.2-18.9-24.2Z"/>
    <path class="st21" d="M849.2,4643.8c0-13.8-10.2-25.7-25.3-25.7s-26,12-26,26.6,10.9,26.6,26,26.6,21.4-8.3,24-17.3h-12.9c-1.7,4.2-5.4,6.7-11.3,6.7s-12.7-4.7-13.9-12.9h39.2c.2-1.9.2-2.7.2-4ZM810.2,4638.7c2-7.1,7.7-10.3,13.6-10.3s12.8,4.7,13.3,10.3h-26.9Z"/>
    <path class="st21" d="M898.1,4643.8c0-13.8-10.2-25.7-25.3-25.7s-26,12-26,26.6,10.9,26.6,26,26.6,21.4-8.3,24-17.3h-12.9c-1.7,4.2-5.4,6.7-11.3,6.7s-12.7-4.7-13.9-12.9h39.2c.2-1.9.2-2.7.2-4ZM859.1,4638.7c2-7.1,7.7-10.3,13.6-10.3s12.8,4.7,13.3,10.3h-26.9Z"/>
    <path class="st21" d="M928.7,4669.8v-7.1h-7.5c-4.4,0-8.9-1.7-8.9-10.9v-24.4h16.5v-7.4h-16.5v-14.8h-8.4v14.8h-11.1v7.4h11.1v24c0,15.5,8.1,18.5,15.7,18.5h9.2Z"/>
    <path class="st21" d="M949.9,4686.8c10.8,0,14.6-4.3,20.2-18.4l19.6-48.5h-8.9c0,0-14,35.3-14,35.3l-1.3,4.3-1.2-4.4-14.1-35.2h-8.9l19.8,48.4-.5,1.4c-2.6,6.8-4.6,10-10.6,10h-8.3v7.1h8.2Z"/>
    <path class="st21" d="M1011.6,4671.3c14.9,0,26-11.7,26-26.3s-11.1-26.3-26-26.3-25.9,11.8-25.9,26.3,11.1,26.3,25.9,26.3ZM1011.7,4663.3c-9.9,0-17.6-7.8-17.6-18.4s7.7-18.4,17.6-18.4,17.5,7.9,17.5,18.4-7.6,18.4-17.5,18.4Z"/>
    <path class="st21" d="M1062.4,4671.3c13,0,22.6-7.3,22.6-24.6v-26.6h-8.4v26.4c0,11.2-5.1,17-14.3,17s-14.3-5.8-14.3-17v-26.4h-8.4v26.6c0,17.3,9.5,24.6,22.8,24.6Z"/>
  </g>
  <g>
    <g class="st9">
      <path d="M-3467.5,6059.2h-198.2c-69.4,0-126.2,56.9-126.2,126.5s56.8,126.5,126.2,126.5h198.2c69.4,0,126.1-56.9,126.1-126.5s-56.8-126.5-126.1-126.5ZM-3467.5,6294.1c-59.5,0-108.1-48.8-108.1-108.4s48.7-108.4,108.1-108.4,108.1,48.8,108.1,108.4-48.7,108.4-108.1,108.4Z"/>
    </g>
    <g class="st10">
      <path d="M-3669.2,6571.3h198.2c69.4,0,126.2-56.9,126.2-126.5s-56.8-126.5-126.2-126.5h-198.2c-69.4,0-126.1,56.9-126.1,126.5s56.8,126.5,126.1,126.5ZM-3669.2,6336.5c59.5,0,108.1,48.8,108.1,108.4s-48.7,108.4-108.1,108.4-108.1-48.8-108.1-108.4,48.7-108.4,108.1-108.4Z"/>
    </g>
    <path d="M-3827,6719.2v-21.4c0-8.7,6.2-14.1,13-14.1s11.4,4.1,11.4,13.5v22h6.9v-22.1c0-13-5.7-19.8-16.5-19.8s-12.7,3.8-15,9v-7.9h-6.6v40.8h6.9Z"/>
    <path d="M-3786.7,6670.5c3,0,4.8-2,4.8-4.4s-1.8-4.4-4.7-4.4-4.7,2-4.7,4.4,1.8,4.4,4.6,4.4ZM-3783.2,6719.2v-40.8h-6.9v40.8h6.9Z"/>
    <path d="M-3759.6,6720.4c9.7,0,17.2-6,19.5-14.8h-7c-2.1,5.6-6.9,8.4-12.4,8.4s-14-5.7-14-15.1,6.9-15.1,14-15.1,10.3,2.8,12.4,8h7.1c-2.4-8.4-9.8-14.5-19.5-14.5s-20.8,9.6-20.8,21.5,9,21.5,20.8,21.5Z"/>
    <path d="M-3700.4,6697.8c0-11-8.4-20.5-20.1-20.5s-20.7,9.6-20.7,21.5,8.9,21.5,20.7,21.5,16.5-5.9,18.9-13.4h-7.7c-1.8,4.6-5.8,7-11.3,7s-12.8-5.1-13.6-13.3h33.8c0-1.5.1-2.1.1-2.8ZM-3734,6694.6c1.6-7,7.2-10.8,13.3-10.8s12.8,5,13.2,10.8h-26.6Z"/>
    <path d="M-3661.8,6719.2v-5.8h-6.2c-3.6,0-7.3-1.4-7.3-8.9v-19.9h13.5v-6h-13.5v-12.1h-6.9v12.1h-9.1v6h9.1v19.6c0,12.7,6.6,15.1,12.8,15.1h7.5Z"/>
    <path d="M-3642.1,6720.4c12.2,0,21.3-9.6,21.3-21.5s-9.1-21.5-21.3-21.5-21.2,9.6-21.2,21.5,9.1,21.5,21.2,21.5ZM-3642,6713.9c-8.1,0-14.4-6.4-14.4-15.1s6.3-15.1,14.4-15.1,14.3,6.5,14.3,15.1-6.2,15.1-14.3,15.1Z"/>
    <path d="M-3555,6677.3c-6.3,0-11.8,3.5-15,10.5-2.1-6.9-6.9-10.5-14.2-10.5s-11.9,3.9-14,9v-7.9h-6.5v40.8h6.8v-21.4c0-8.3,5.7-14.1,11.9-14.1s10.5,4.1,10.5,13.5v22h6.8v-21.4c0-8.3,5.7-14.1,11.9-14.1s10.5,4.2,10.5,13.5v22h6.8v-22.1c0-13-5.4-19.8-15.5-19.8Z"/>
    <path d="M-3495.7,6698c0-11.3-8.3-21.1-20.7-21.1s-21.3,9.8-21.3,21.8,8.9,21.8,21.3,21.8,17.5-6.8,19.6-14.1h-10.5c-1.4,3.5-4.4,5.5-9.3,5.5s-10.4-3.9-11.4-10.6h32.1c.2-1.5.2-2.2.2-3.3ZM-3527.6,6693.8c1.6-5.8,6.3-8.4,11.1-8.4s10.5,3.8,10.9,8.4h-22Z"/>
    <path d="M-3455.7,6698c0-11.3-8.3-21.1-20.7-21.1s-21.3,9.8-21.3,21.8,8.9,21.8,21.3,21.8,17.5-6.8,19.6-14.1h-10.5c-1.4,3.5-4.4,5.5-9.3,5.5s-10.4-3.9-11.4-10.6h32.1c.2-1.5.2-2.2.2-3.3ZM-3487.6,6693.8c1.6-5.8,6.3-8.4,11.1-8.4s10.5,3.8,10.9,8.4h-22Z"/>
    <path d="M-3430.7,6719.2v-5.8h-6.2c-3.6,0-7.3-1.4-7.3-8.9v-19.9h13.5v-6h-13.5v-12.1h-6.9v12.1h-9.1v6h9.1v19.6c0,12.7,6.6,15.1,12.8,15.1h7.5Z"/>
    <path d="M-3413.3,6733.1c8.8,0,11.9-3.6,16.5-15l16.1-39.6h-7.3s-11.5,28.9-11.5,28.9l-1,3.6-1-3.6-11.5-28.8h-7.3l16.2,39.6-.4,1.2c-2.1,5.6-3.8,8.2-8.7,8.2h-6.8v5.8h6.7Z"/>
    <path d="M-3362.9,6720.4c12.2,0,21.3-9.6,21.3-21.5s-9.1-21.5-21.3-21.5-21.2,9.6-21.2,21.5,9.1,21.5,21.2,21.5ZM-3362.8,6713.9c-8.1,0-14.4-6.4-14.4-15.1s6.3-15.1,14.4-15.1,14.3,6.5,14.3,15.1-6.2,15.1-14.3,15.1Z"/>
    <path d="M-3321.3,6720.4c10.6,0,18.5-6,18.5-20.1v-21.8h-6.9v21.6c0,9.2-4.2,13.9-11.7,13.9s-11.7-4.7-11.7-13.9v-21.6h-6.8v21.8c0,14.1,7.8,20.1,18.6,20.1Z"/>
  </g>
  <g class="st8">
    <path class="st21" d="M-3663.4,4361.1h186.8c65.4,0,118.9-53.6,118.9-119.2s-53.5-119.2-118.9-119.2h-186.8c-65.4,0-118.9,53.6-118.9,119.2s53.5,119.2,118.9,119.2ZM-3663.4,4139.7c56,0,101.9,46,101.9,102.2s-45.9,102.2-101.9,102.2-101.9-46-101.9-102.2,45.9-102.2,101.9-102.2Z"/>
  </g>
  <g class="st5">
    <path class="st21" d="M-3476.9,4365h-186.8c-65.4,0-118.9,53.6-118.9,119.2s53.5,119.2,118.9,119.2h186.8c65.4,0,118.9-53.6,118.9-119.2s-53.5-119.2-118.9-119.2ZM-3476.9,4586.3c-56,0-101.9-46-101.9-102.2s45.9-102.2,101.9-102.2,101.9,46,101.9,102.2-45.9,102.2-101.9,102.2Z"/>
  </g>
  <path class="st21" d="M-3812.1,4740.4v-20.2c0-8.2,5.8-13.3,12.2-13.3s10.7,3.9,10.7,12.7v20.7h6.5v-20.8c0-12.3-5.3-18.7-15.5-18.7s-12,3.6-14.2,8.5v-7.4h-6.2v38.4h6.5Z"/>
  <path class="st21" d="M-3774.1,4694.5c2.8,0,4.5-1.8,4.5-4.1s-1.7-4.1-4.4-4.1-4.4,1.8-4.4,4.1,1.7,4.1,4.4,4.1ZM-3770.8,4740.4v-38.4h-6.5v38.4h6.5Z"/>
  <path class="st21" d="M-3748.6,4741.5c9.1,0,16.2-5.7,18.4-14h-6.6c-2,5.3-6.5,7.9-11.7,7.9s-13.2-5.4-13.2-14.2,6.5-14.2,13.2-14.2,9.7,2.6,11.7,7.6h6.7c-2.3-7.9-9.3-13.7-18.4-13.7s-19.6,9.1-19.6,20.3,8.5,20.3,19.6,20.3Z"/>
  <path class="st21" d="M-3692.8,4720.2c0-10.3-7.9-19.4-19-19.4s-19.5,9.1-19.5,20.3,8.4,20.3,19.5,20.3,15.6-5.6,17.8-12.6h-7.3c-1.7,4.3-5.5,6.6-10.7,6.6s-12-4.8-12.8-12.5h31.9c0-1.4.1-2,.1-2.6ZM-3724.5,4717.2c1.5-6.6,6.8-10.2,12.6-10.2s12.1,4.7,12.5,10.2h-25Z"/>
  <path class="st21" d="M-3656.4,4740.4v-5.5h-5.8c-3.4,0-6.9-1.3-6.9-8.4v-18.8h12.7v-5.7h-12.7v-11.4h-6.5v11.4h-8.6v5.7h8.6v18.5c0,12,6.2,14.2,12.1,14.2h7.1Z"/>
  <path class="st21" d="M-3637.9,4741.5c11.5,0,20-9,20-20.3s-8.6-20.3-20-20.3-20,9.1-20,20.3,8.6,20.3,20,20.3ZM-3637.8,4735.4c-7.6,0-13.6-6-13.6-14.2s5.9-14.2,13.6-14.2,13.5,6.1,13.5,14.2-5.9,14.2-13.5,14.2Z"/>
  <path class="st21" d="M-3555.8,4700.9c-6,0-11.1,3.3-14.1,9.9-2-6.5-6.5-9.9-13.4-9.9s-11.3,3.7-13.2,8.5v-7.4h-6.2v38.4h6.4v-20.2c0-7.8,5.4-13.3,11.3-13.3s9.9,3.9,9.9,12.7v20.7h6.4v-20.2c0-7.8,5.4-13.3,11.2-13.3s9.9,3.9,9.9,12.7v20.7h6.4v-20.8c0-12.3-5-18.7-14.6-18.7Z"/>
  <path class="st21" d="M-3499.9,4720.3c0-10.7-7.8-19.8-19.5-19.8s-20.1,9.2-20.1,20.5,8.4,20.5,20.1,20.5,16.5-6.4,18.5-13.3h-9.9c-1.3,3.3-4.1,5.2-8.7,5.2s-9.8-3.6-10.7-10h30.2c.1-1.4.2-2.1.2-3.1ZM-3529.9,4716.4c1.5-5.5,5.9-7.9,10.5-7.9s9.9,3.6,10.2,7.9h-20.7Z"/>
  <path class="st21" d="M-3462.2,4720.3c0-10.7-7.8-19.8-19.5-19.8s-20.1,9.2-20.1,20.5,8.4,20.5,20.1,20.5,16.5-6.4,18.5-13.3h-9.9c-1.3,3.3-4.1,5.2-8.7,5.2s-9.8-3.6-10.7-10h30.2c.1-1.4.2-2.1.2-3.1ZM-3492.3,4716.4c1.5-5.5,5.9-7.9,10.5-7.9s9.9,3.6,10.2,7.9h-20.7Z"/>
  <path class="st21" d="M-3438.6,4740.4v-5.5h-5.8c-3.4,0-6.9-1.3-6.9-8.4v-18.8h12.7v-5.7h-12.7v-11.4h-6.5v11.4h-8.6v5.7h8.6v18.5c0,12,6.2,14.2,12.1,14.2h7.1Z"/>
  <path class="st21" d="M-3422.3,4753.5c8.3,0,11.3-3.4,15.6-14.2l15.1-37.4h-6.9s-10.8,27.2-10.8,27.2l-1,3.4-.9-3.4-10.9-27.2h-6.9l15.2,37.3-.4,1.1c-2,5.2-3.5,7.7-8.2,7.7h-6.4v5.5h6.3Z"/>
  <path class="st21" d="M-3374.7,4741.5c11.5,0,20-9,20-20.3s-8.6-20.3-20-20.3-20,9.1-20,20.3,8.6,20.3,20,20.3ZM-3374.6,4735.4c-7.6,0-13.6-6-13.6-14.2s5.9-14.2,13.6-14.2,13.5,6.1,13.5,14.2-5.9,14.2-13.5,14.2Z"/>
  <path class="st21" d="M-3335.5,4741.5c10,0,17.4-5.6,17.4-19v-20.5h-6.5v20.3c0,8.7-3.9,13.1-11,13.1s-11-4.4-11-13.1v-20.3h-6.4v20.5c0,13.3,7.3,19,17.5,19Z"/>
  <g>
    <path d="M-1230.7,2717.3h-30.9c-12.6,0-20.3-8.9-20.3-18.7s5.9-16.4,19.5-16.4h31.7v-9.9h-31.9c-18.8,0-28.6,8.2-28.6,23.8s5.5,18.3,13,21.7h-11.4v9.5h58.8v-9.9Z"/>
    <path d="M-1301,2659c0-4.3-2.8-6.9-6.3-6.9s-6.3,2.6-6.3,6.8,2.8,6.7,6.3,6.7,6.3-2.6,6.3-6.7ZM-1230.7,2653.9h-58.8v9.9h58.8v-9.9Z"/>
    <path d="M-1229,2619.9c0-14-8.7-24.8-21.4-28.1v10.2c8.1,3.1,12.1,10,12.1,17.9s-8.2,20.2-21.8,20.2-21.7-9.9-21.7-20.2,4-14.9,11.6-17.9v-10.2c-12.2,3.5-20.9,14.2-20.9,28.2s13.9,30,31.1,30,31.1-13,31.1-30Z"/>
    <path d="M-1261.6,2534.5c-15.8,0-29.6,12.1-29.6,29.1s13.9,29.9,31.1,29.9,31-12.9,31-29.9-8.5-23.9-19.3-27.2v11.1c6.6,2.6,10.1,8.4,10.1,16.3s-7.4,18.5-19.2,19.7v-48.8c-2.1-.1-3-.2-4-.2ZM-1266.3,2583c-10.2-2.3-15.6-10.4-15.6-19.3s7.2-18.5,15.6-19.1v38.3Z"/>
    <path d="M-1230.7,2478.7h-8.4v8.9c0,5.2-2,10.6-12.9,10.6h-28.8v-19.4h-8.7v19.4h-17.5v9.9h17.5v13.1h8.7v-13.1h28.3c18.3,0,21.8-9.6,21.8-18.5v-10.8Z"/>
    <path d="M-1229,2450.3c0-17.6-13.8-30.7-31.1-30.7s-31.1,13.2-31.1,30.7,13.9,30.6,31.1,30.6,31.1-13.1,31.1-30.6ZM-1238.4,2450.2c0,11.7-9.2,20.8-21.7,20.8s-21.7-9.1-21.7-20.8,9.3-20.7,21.7-20.7,21.7,9,21.7,20.7Z"/>
    <path d="M-1291.2,2324.6c0,9.1,5.1,17.1,15.1,21.6-10,3.1-15.1,10-15.1,20.5s5.7,17.2,13,20.2h-11.4v9.5h58.8v-9.8h-30.9c-12,0-20.3-8.3-20.3-17.2s5.9-15.1,19.5-15.1h31.7v-9.8h-30.9c-12,0-20.3-8.2-20.3-17.2s6-15.2,19.5-15.2h31.7v-9.9h-31.9c-18.8,0-28.6,7.7-28.6,22.3Z"/>
    <path d="M-1261.4,2238.9c-16.3,0-30.4,12-30.4,29.9s14.1,30.7,31.4,30.7,31.4-12.9,31.4-30.7-9.7-25.3-20.4-28.3v15.2c5,2,8,6.3,8,13.4s-5.6,15-15.3,16.4v-46.3c-2.2-.2-3.2-.3-4.7-.3ZM-1267.4,2284.9c-8.4-2.4-12.2-9.1-12.2-16.1s5.5-15.1,12.2-15.7v31.8Z"/>
    <path d="M-1261.4,2181.2c-16.3,0-30.4,12-30.4,29.9s14.1,30.7,31.4,30.7,31.4-12.9,31.4-30.7-9.7-25.3-20.4-28.3v15.2c5,2,8,6.3,8,13.4s-5.6,15-15.3,16.4v-46.3c-2.2-.2-3.2-.3-4.7-.3ZM-1267.4,2227.2c-8.4-2.4-12.2-9.1-12.2-16.1s5.5-15.1,12.2-15.7v31.8Z"/>
    <path d="M-1230.7,2145h-8.4v8.9c0,5.2-2,10.6-12.9,10.6h-28.8v-19.4h-8.7v19.4h-17.5v9.9h17.5v13.1h8.7v-13.1h28.3c18.3,0,21.8-9.6,21.8-18.5v-10.8Z"/>
    <path d="M-1210.6,2119.9c0-12.7-5.1-17.2-21.7-23.9l-57.2-23.2v10.6c0,0,41.6,16.6,41.6,16.6l5.1,1.5-5.2,1.4-41.6,16.7v10.6l57.1-23.4,1.7.6c8,3.1,11.8,5.4,11.8,12.5v9.7h8.4v-9.7Z"/>
    <path d="M-1229,2047c0-17.6-13.8-30.7-31.1-30.7s-31.1,13.2-31.1,30.7,13.9,30.6,31.1,30.6,31.1-13.1,31.1-30.6ZM-1238.4,2046.9c0,11.7-9.2,20.8-21.7,20.8s-21.7-9.1-21.7-20.8,9.3-20.7,21.7-20.7,21.7,9,21.7,20.7Z"/>
    <path d="M-1229,1987.1c0-15.3-8.7-26.7-29.1-26.7h-31.4v9.9h31.1c13.3,0,20,6.1,20,16.9s-6.8,16.9-20,16.9h-31.1v9.9h31.4c20.4,0,29.1-11.2,29.1-26.9Z"/>
  </g>
  <g>
    <path class="st21" d="M-3536.9,2717.3h-30.9c-12.6,0-20.3-8.9-20.3-18.7s5.9-16.4,19.5-16.4h31.7v-9.9h-31.9c-18.8,0-28.6,8.2-28.6,23.8s5.5,18.3,13,21.7h-11.4v9.5h58.8v-9.9Z"/>
    <path class="st21" d="M-3607.2,2659c0-4.3-2.8-6.9-6.3-6.9s-6.3,2.6-6.3,6.8,2.8,6.7,6.3,6.7,6.3-2.6,6.3-6.7ZM-3536.9,2653.9h-58.8v9.9h58.8v-9.9Z"/>
    <path class="st21" d="M-3535.3,2619.9c0-14-8.7-24.8-21.4-28.1v10.2c8.1,3.1,12.1,10,12.1,17.9s-8.2,20.2-21.8,20.2-21.7-9.9-21.7-20.2,4-14.9,11.6-17.9v-10.2c-12.2,3.5-20.9,14.2-20.9,28.2s13.9,30,31.1,30,31.1-13,31.1-30Z"/>
    <path class="st21" d="M-3567.8,2534.5c-15.8,0-29.6,12.1-29.6,29.1s13.9,29.9,31.1,29.9,31-12.9,31-29.9-8.5-23.9-19.3-27.2v11.1c6.6,2.6,10.1,8.4,10.1,16.3s-7.4,18.5-19.2,19.7v-48.8c-2.1-.1-3-.2-4-.2ZM-3572.5,2583c-10.2-2.3-15.6-10.4-15.6-19.3s7.2-18.5,15.6-19.1v38.3Z"/>
    <path class="st21" d="M-3536.9,2478.7h-8.4v8.9c0,5.2-2,10.6-12.9,10.6h-28.8v-19.4h-8.7v19.4h-17.5v9.9h17.5v13.1h8.7v-13.1h28.3c18.3,0,21.8-9.6,21.8-18.5v-10.8Z"/>
    <path class="st21" d="M-3535.3,2450.3c0-17.6-13.8-30.7-31.1-30.7s-31.1,13.2-31.1,30.7,13.9,30.6,31.1,30.6,31.1-13.1,31.1-30.6ZM-3544.6,2450.2c0,11.7-9.2,20.8-21.7,20.8s-21.7-9.1-21.7-20.8,9.3-20.7,21.7-20.7,21.7,9,21.7,20.7Z"/>
    <path class="st21" d="M-3597.4,2324.6c0,9.1,5.1,17.1,15.1,21.6-10,3.1-15.1,10-15.1,20.5s5.7,17.2,13,20.2h-11.4v9.5h58.8v-9.8h-30.9c-12,0-20.3-8.3-20.3-17.2s5.9-15.1,19.5-15.1h31.7v-9.8h-30.9c-12,0-20.3-8.2-20.3-17.2s6-15.2,19.5-15.2h31.7v-9.9h-31.9c-18.8,0-28.6,7.7-28.6,22.3Z"/>
    <path class="st21" d="M-3567.6,2238.9c-16.3,0-30.4,12-30.4,29.9s14.1,30.7,31.4,30.7,31.4-12.9,31.4-30.7-9.7-25.3-20.4-28.3v15.2c5,2,8,6.3,8,13.4s-5.6,15-15.3,16.4v-46.3c-2.2-.2-3.2-.3-4.7-.3ZM-3573.7,2284.9c-8.4-2.4-12.2-9.1-12.2-16.1s5.5-15.1,12.2-15.7v31.8Z"/>
    <path class="st21" d="M-3567.6,2181.2c-16.3,0-30.4,12-30.4,29.9s14.1,30.7,31.4,30.7,31.4-12.9,31.4-30.7-9.7-25.3-20.4-28.3v15.2c5,2,8,6.3,8,13.4s-5.6,15-15.3,16.4v-46.3c-2.2-.2-3.2-.3-4.7-.3ZM-3573.7,2227.2c-8.4-2.4-12.2-9.1-12.2-16.1s5.5-15.1,12.2-15.7v31.8Z"/>
    <path class="st21" d="M-3536.9,2145h-8.4v8.9c0,5.2-2,10.6-12.9,10.6h-28.8v-19.4h-8.7v19.4h-17.5v9.9h17.5v13.1h8.7v-13.1h28.3c18.3,0,21.8-9.6,21.8-18.5v-10.8Z"/>
    <path class="st21" d="M-3516.9,2119.9c0-12.7-5.1-17.2-21.7-23.9l-57.2-23.2v10.6c0,0,41.6,16.6,41.6,16.6l5.1,1.5-5.2,1.4-41.6,16.7v10.6l57.1-23.4,1.7.6c8,3.1,11.8,5.4,11.8,12.5v9.7h8.4v-9.7Z"/>
    <path class="st21" d="M-3535.3,2047c0-17.6-13.8-30.7-31.1-30.7s-31.1,13.2-31.1,30.7,13.9,30.6,31.1,30.6,31.1-13.1,31.1-30.6ZM-3544.6,2046.9c0,11.7-9.2,20.8-21.7,20.8s-21.7-9.1-21.7-20.8,9.3-20.7,21.7-20.7,21.7,9,21.7,20.7Z"/>
    <path class="st21" d="M-3535.3,1987.1c0-15.3-8.7-26.7-29.1-26.7h-31.4v9.9h31.1c13.3,0,20,6.1,20,16.9s-6.8,16.9-20,16.9h-31.1v9.9h31.4c20.4,0,29.1-11.2,29.1-26.9Z"/>
  </g>
  <g class="st3">
    <path class="st22" d="M-1655.4-837.2h-154.4c-54.1,0-98.3,44.3-98.3,98.5s44.2,98.5,98.3,98.5h154.4c54.1,0,98.3-44.3,98.3-98.5s-44.2-98.5-98.3-98.5ZM-1655.4-654.3c-46.3,0-84.2-38-84.2-84.4s37.9-84.4,84.2-84.4,84.2,38,84.2,84.4-37.9,84.4-84.2,84.4Z"/>
  </g>
  <path d="M-1812.6-692c-25.7,0-46.5-20.9-46.5-46.7s20.9-46.5,46.5-46.5,30.7,8.4,39.1,21.1l31.6-21.1c-15.3-22.8-41.2-37.9-70.7-37.9s-33.3,5.2-46.5,14c-23,15.1-37.9,41.2-37.9,70.5s14.9,55.4,37.9,70.5c13.2,9,29.3,14.2,46.5,14.2,29.5,0,55.4-15.3,70.7-37.9l-31.6-21.3c-8.4,12.8-22.8,21.3-39.1,21.3Z"/>
  <path d="M-1609-809.2c-13.2-8.8-29.3-14-46.4-14-46.9,0-84.7,37.9-84.7,84.5s37.7,84.7,84.7,84.7,33.1-5.2,46.4-14.2c23-15.1,37.9-41,37.9-70.5s-14.9-55.4-37.9-70.5ZM-1702.1-738.7c0-25.7,20.9-46.5,46.7-46.5s46.4,20.9,46.4,46.5-20.9,46.7-46.4,46.7-46.7-20.9-46.7-46.7Z"/>
  <path d="M-1453.6-692v37.9h37.9v-92.5c0-28-15.3-52.7-37.9-65.9-11.5-6.9-24.7-10.7-38.9-10.7s-27.2,3.8-38.7,10.7v-10.7h-37.9v169.1h37.9v-92.5c0-21.3,17.6-38.7,38.7-38.7s38.9,17.4,38.9,38.7v54.6Z"/>
  <path d="M-1298.3-692v37.9h37.9v-92.5c0-28-15.3-52.7-37.9-65.9-11.5-6.9-24.7-10.7-38.9-10.7s-27.2,3.8-38.7,10.7v-10.7h-37.9v169.1h37.9v-92.5c0-21.3,17.6-38.7,38.7-38.7s38.9,17.4,38.9,38.7v54.6Z"/>
  <path d="M-1213.3-763.8c8.4-13,22.8-21.5,39.3-21.5s30.7,8.4,39.1,21.1c0,.2.2.2.2.4h-78.5ZM-1174-654c29.5,0,55.4-15.3,70.7-37.9l-31.6-21.3c-8.4,12.8-22.8,21.3-39.1,21.3s-39.5-14.4-44.8-34.1h128.3c.6-4,1-8.4,1-12.6,0-8.6-1.3-17.2-3.8-25.1-2.3-7.7-5.7-14.9-10-21.5-15.3-22.8-41.2-37.9-70.7-37.9s-33.3,5.2-46.5,14c-16.1,10.7-28.2,26.6-34.3,45.4-2.3,7.8-3.6,16.5-3.6,25.1s.4,8.6.8,12.6c3.8,24.3,17.6,45,37.2,57.8,13.2,9,29.3,14.2,46.5,14.2Z"/>
  <path d="M-1003.2-692c-25.7,0-46.5-20.9-46.5-46.7s20.9-46.5,46.5-46.5,30.7,8.4,39.1,21.1l31.6-21.1c-15.3-22.8-41.2-37.9-70.7-37.9s-33.3,5.2-46.5,14c-23,15.1-37.9,41.2-37.9,70.5s14.9,55.4,37.9,70.5c13.2,9,29.3,14.2,46.5,14.2,29.5,0,55.4-15.3,70.7-37.9l-31.6-21.3c-8.4,12.8-22.8,21.3-39.1,21.3Z"/>
  <path d="M-930.6-738.7v-130.1h37.9v45.6h38.1v37.9h-38.1v46.5c0,25.9,20.7,46.7,46.5,46.7v37.9c-17.2,0-33.3-5.2-46.5-14.2-22.8-15.1-37.9-41-37.9-70.5Z"/>
  <path d="M-802.7-654.7h-8.7c-3.6,0-5.7-2.5-5.7-5.3s1.7-4.6,5.5-4.6h9v-2.8h-9c-5.3,0-8.1,2.3-8.1,6.7s1.6,5.2,3.7,6.1h-3.2v2.7h16.6v-2.8Z"/>
  <path d="M-822.6-671.1c0-1.2-.8-1.9-1.8-1.9s-1.8.7-1.8,1.9.8,1.9,1.8,1.9,1.8-.7,1.8-1.9ZM-802.7-672.6h-16.6v2.8h16.6v-2.8Z"/>
  <path d="M-802.2-682.2c0-3.9-2.5-7-6.1-8v2.9c2.3.9,3.4,2.8,3.4,5.1s-2.3,5.7-6.2,5.7-6.2-2.8-6.2-5.7,1.1-4.2,3.3-5.1v-2.9c-3.4,1-5.9,4-5.9,8s3.9,8.5,8.8,8.5,8.8-3.7,8.8-8.5Z"/>
  <path d="M-811.4-706.3c-4.5,0-8.4,3.4-8.4,8.2s3.9,8.5,8.8,8.5,8.8-3.7,8.8-8.5-2.4-6.8-5.5-7.7v3.1c1.9.7,2.9,2.4,2.9,4.6s-2.1,5.2-5.4,5.6v-13.8c-.6,0-.8,0-1.1,0ZM-812.8-692.6c-2.9-.6-4.4-3-4.4-5.4s2-5.2,4.4-5.4v10.8Z"/>
  <path d="M-802.7-722.1h-2.4v2.5c0,1.5-.6,3-3.7,3h-8.1v-5.5h-2.5v5.5h-5v2.8h5v3.7h2.5v-3.7h8c5.2,0,6.2-2.7,6.2-5.2v-3.1Z"/>
  <path d="M-802.2-730.1c0-5-3.9-8.7-8.8-8.7s-8.8,3.7-8.8,8.7,3.9,8.6,8.8,8.6,8.8-3.7,8.8-8.6ZM-804.9-730.1c0,3.3-2.6,5.9-6.1,5.9s-6.2-2.6-6.2-5.9,2.6-5.8,6.2-5.8,6.1,2.5,6.1,5.8Z"/>
  <path d="M-819.8-765.6c0,2.6,1.4,4.8,4.3,6.1-2.8.9-4.3,2.8-4.3,5.8s1.6,4.9,3.7,5.7h-3.2v2.7h16.6v-2.8h-8.7c-3.4,0-5.7-2.3-5.7-4.9s1.7-4.3,5.5-4.3h9v-2.8h-8.7c-3.4,0-5.7-2.3-5.7-4.9s1.7-4.3,5.5-4.3h9v-2.8h-9c-5.3,0-8.1,2.2-8.1,6.3Z"/>
  <path d="M-811.4-789.8c-4.6,0-8.6,3.4-8.6,8.4s4,8.7,8.9,8.7,8.9-3.7,8.9-8.7-2.8-7.2-5.8-8v4.3c1.4.6,2.3,1.8,2.3,3.8s-1.6,4.2-4.3,4.6v-13.1c-.6,0-.9,0-1.3,0ZM-813.1-776.8c-2.4-.7-3.4-2.6-3.4-4.5s1.6-4.3,3.4-4.4v9Z"/>
  <path d="M-811.4-806.2c-4.6,0-8.6,3.4-8.6,8.4s4,8.7,8.9,8.7,8.9-3.7,8.9-8.7-2.8-7.2-5.8-8v4.3c1.4.6,2.3,1.8,2.3,3.8s-1.6,4.2-4.3,4.6v-13.1c-.6,0-.9,0-1.3,0ZM-813.1-793.1c-2.4-.7-3.4-2.6-3.4-4.5s1.6-4.3,3.4-4.4v9Z"/>
  <path d="M-802.7-816.4h-2.4v2.5c0,1.5-.6,3-3.7,3h-8.1v-5.5h-2.5v5.5h-5v2.8h5v3.7h2.5v-3.7h8c5.2,0,6.2-2.7,6.2-5.2v-3.1Z"/>
  <path d="M-797-823.4c0-3.6-1.4-4.9-6.1-6.7l-16.2-6.6v3s11.8,4.7,11.8,4.7l1.5.4-1.5.4-11.8,4.7v3l16.1-6.6.5.2c2.3.9,3.3,1.5,3.3,3.5v2.8h2.4v-2.7Z"/>
  <path d="M-802.2-844c0-5-3.9-8.7-8.8-8.7s-8.8,3.7-8.8,8.7,3.9,8.6,8.8,8.6,8.8-3.7,8.8-8.6ZM-804.9-844.1c0,3.3-2.6,5.9-6.1,5.9s-6.2-2.6-6.2-5.9,2.6-5.8,6.2-5.8,6.1,2.5,6.1,5.8Z"/>
  <path d="M-802.2-861c0-4.3-2.4-7.5-8.2-7.5h-8.9v2.8h8.8c3.8,0,5.7,1.7,5.7,4.8s-1.9,4.8-5.7,4.8h-8.8v2.8h8.9c5.8,0,8.2-3.2,8.2-7.6Z"/>
  <g class="st6">
    <path class="st21" d="M657.2,457.3h-154.4c-54.1,0-98.3,44.3-98.3,98.5s44.2,98.5,98.3,98.5h154.4c54.1,0,98.3-44.3,98.3-98.5s-44.2-98.5-98.3-98.5ZM657.2,640.2c-46.3,0-84.2-38-84.2-84.4s37.9-84.4,84.2-84.4,84.2,38,84.2,84.4-37.9,84.4-84.2,84.4Z"/>
  </g>
  <path d="M500,602.5c-25.7,0-46.5-20.9-46.5-46.7s20.9-46.5,46.5-46.5,30.7,8.4,39.1,21.1l31.6-21.1c-15.3-22.8-41.2-37.9-70.7-37.9s-33.3,5.2-46.5,14c-23,15.1-37.9,41.2-37.9,70.5s14.9,55.4,37.9,70.5c13.2,9,29.3,14.2,46.5,14.2,29.5,0,55.4-15.3,70.7-37.9l-31.6-21.3c-8.4,12.8-22.8,21.3-39.1,21.3Z"/>
  <path d="M703.6,485.3c-13.2-8.8-29.3-14-46.4-14-46.9,0-84.7,37.9-84.7,84.5s37.7,84.7,84.7,84.7,33.1-5.2,46.4-14.2c23-15.1,37.9-41,37.9-70.5s-14.9-55.4-37.9-70.5ZM610.5,555.8c0-25.7,20.9-46.5,46.7-46.5s46.4,20.9,46.4,46.5-20.9,46.7-46.4,46.7-46.7-20.9-46.7-46.7Z"/>
  <path d="M858.9,602.5v37.9h37.9v-92.5c0-28-15.3-52.7-37.9-65.9-11.5-6.9-24.7-10.7-38.9-10.7s-27.2,3.8-38.7,10.7v-10.7h-37.9v169.1h37.9v-92.5c0-21.3,17.6-38.7,38.7-38.7s38.9,17.4,38.9,38.7v54.6Z"/>
  <path d="M1014.2,602.5v37.9h37.9v-92.5c0-28-15.3-52.7-37.9-65.9-11.5-6.9-24.7-10.7-38.9-10.7s-27.2,3.8-38.7,10.7v-10.7h-37.9v169.1h37.9v-92.5c0-21.3,17.6-38.7,38.7-38.7s38.9,17.4,38.9,38.7v54.6Z"/>
  <path d="M1099.3,530.7c8.4-13,22.8-21.5,39.3-21.5s30.7,8.4,39.1,21.1c0,.2.2.2.2.4h-78.5ZM1138.5,640.5c29.5,0,55.4-15.3,70.7-37.9l-31.6-21.3c-8.4,12.8-22.8,21.3-39.1,21.3s-39.5-14.4-44.8-34.1h128.3c.6-4,1-8.4,1-12.6,0-8.6-1.3-17.2-3.8-25.1-2.3-7.7-5.7-14.9-10-21.5-15.3-22.8-41.2-37.9-70.7-37.9s-33.3,5.2-46.5,14c-16.1,10.7-28.2,26.6-34.3,45.4-2.3,7.8-3.6,16.5-3.6,25.1s.4,8.6.8,12.6c3.8,24.3,17.6,45,37.2,57.8,13.2,9,29.3,14.2,46.5,14.2Z"/>
  <path d="M1309.4,602.5c-25.7,0-46.5-20.9-46.5-46.7s20.9-46.5,46.5-46.5,30.7,8.4,39.1,21.1l31.6-21.1c-15.3-22.8-41.2-37.9-70.7-37.9s-33.3,5.2-46.5,14c-23,15.1-37.9,41.2-37.9,70.5s14.9,55.4,37.9,70.5c13.2,9,29.3,14.2,46.5,14.2,29.5,0,55.4-15.3,70.7-37.9l-31.6-21.3c-8.4,12.8-22.8,21.3-39.1,21.3Z"/>
  <path d="M1382,555.8v-130.1h37.9v45.6h38.1v37.9h-38.1v46.5c0,25.9,20.7,46.7,46.5,46.7v37.9c-17.2,0-33.3-5.2-46.5-14.2-22.8-15.1-37.9-41-37.9-70.5Z"/>
  <path d="M1509.9,639.8h-8.7c-3.6,0-5.7-2.5-5.7-5.3s1.7-4.6,5.5-4.6h9v-2.8h-9c-5.3,0-8.1,2.3-8.1,6.7s1.6,5.2,3.7,6.1h-3.2v2.7h16.6v-2.8Z"/>
  <path d="M1490,623.3c0-1.2-.8-1.9-1.8-1.9s-1.8.7-1.8,1.9.8,1.9,1.8,1.9,1.8-.7,1.8-1.9ZM1509.9,621.9h-16.6v2.8h16.6v-2.8Z"/>
  <path d="M1510.3,612.3c0-3.9-2.5-7-6.1-8v2.9c2.3.9,3.4,2.8,3.4,5.1s-2.3,5.7-6.2,5.7-6.2-2.8-6.2-5.7,1.1-4.2,3.3-5.1v-2.9c-3.4,1-5.9,4-5.9,8s3.9,8.5,8.8,8.5,8.8-3.7,8.8-8.5Z"/>
  <path d="M1501.1,588.2c-4.5,0-8.4,3.4-8.4,8.2s3.9,8.5,8.8,8.5,8.8-3.7,8.8-8.5-2.4-6.8-5.5-7.7v3.1c1.9.7,2.9,2.4,2.9,4.6s-2.1,5.2-5.4,5.6v-13.8c-.6,0-.8,0-1.1,0ZM1499.8,601.9c-2.9-.6-4.4-3-4.4-5.4s2-5.2,4.4-5.4v10.8Z"/>
  <path d="M1509.9,572.4h-2.4v2.5c0,1.5-.6,3-3.7,3h-8.1v-5.5h-2.5v5.5h-5v2.8h5v3.7h2.5v-3.7h8c5.2,0,6.2-2.7,6.2-5.2v-3.1Z"/>
  <path d="M1510.3,564.4c0-5-3.9-8.7-8.8-8.7s-8.8,3.7-8.8,8.7,3.9,8.6,8.8,8.6,8.8-3.7,8.8-8.6ZM1507.7,564.4c0,3.3-2.6,5.9-6.1,5.9s-6.2-2.6-6.2-5.9,2.6-5.8,6.2-5.8,6.1,2.5,6.1,5.8Z"/>
  <path d="M1492.7,528.9c0,2.6,1.4,4.8,4.3,6.1-2.8.9-4.3,2.8-4.3,5.8s1.6,4.9,3.7,5.7h-3.2v2.7h16.6v-2.8h-8.7c-3.4,0-5.7-2.3-5.7-4.9s1.7-4.3,5.5-4.3h9v-2.8h-8.7c-3.4,0-5.7-2.3-5.7-4.9s1.7-4.3,5.5-4.3h9v-2.8h-9c-5.3,0-8.1,2.2-8.1,6.3Z"/>
  <path d="M1501.2,504.6c-4.6,0-8.6,3.4-8.6,8.4s4,8.7,8.9,8.7,8.9-3.7,8.9-8.7-2.8-7.2-5.8-8v4.3c1.4.6,2.3,1.8,2.3,3.8s-1.6,4.2-4.3,4.6v-13.1c-.6,0-.9,0-1.3,0ZM1499.5,517.7c-2.4-.7-3.4-2.6-3.4-4.5s1.6-4.3,3.4-4.4v9Z"/>
  <path d="M1501.2,488.3c-4.6,0-8.6,3.4-8.6,8.4s4,8.7,8.9,8.7,8.9-3.7,8.9-8.7-2.8-7.2-5.8-8v4.3c1.4.6,2.3,1.8,2.3,3.8s-1.6,4.2-4.3,4.6v-13.1c-.6,0-.9,0-1.3,0ZM1499.5,501.4c-2.4-.7-3.4-2.6-3.4-4.5s1.6-4.3,3.4-4.4v9Z"/>
  <path d="M1509.9,478.1h-2.4v2.5c0,1.5-.6,3-3.7,3h-8.1v-5.5h-2.5v5.5h-5v2.8h5v3.7h2.5v-3.7h8c5.2,0,6.2-2.7,6.2-5.2v-3.1Z"/>
  <path d="M1515.5,471.1c0-3.6-1.4-4.9-6.1-6.7l-16.2-6.6v3s11.8,4.7,11.8,4.7l1.5.4-1.5.4-11.8,4.7v3l16.1-6.6.5.2c2.3.9,3.3,1.5,3.3,3.5v2.8h2.4v-2.7Z"/>
  <path d="M1510.3,450.5c0-5-3.9-8.7-8.8-8.7s-8.8,3.7-8.8,8.7,3.9,8.6,8.8,8.6,8.8-3.7,8.8-8.6ZM1507.7,450.4c0,3.3-2.6,5.9-6.1,5.9s-6.2-2.6-6.2-5.9,2.6-5.8,6.2-5.8,6.1,2.5,6.1,5.8Z"/>
  <path d="M1510.3,433.5c0-4.3-2.4-7.5-8.2-7.5h-8.9v2.8h8.8c3.8,0,5.7,1.7,5.7,4.8s-1.9,4.8-5.7,4.8h-8.8v2.8h8.9c5.8,0,8.2-3.2,8.2-7.6Z"/>
</svg>