<?xml version="1.0" encoding="UTF-8"?>
<svg id="Layer_1" xmlns="http://www.w3.org/2000/svg" version="1.1" viewBox="0 0 756 241.94">
  <!-- Generator: Adobe Illustrator 29.8.5, SVG Export Plug-In . SVG Version: 2.1.1 Build 2)  -->
  <defs>
    <style>
      .st0 {
        fill: #ff1749;
      }

      .st1 {
        fill: #f2e7e9;
      }

      .st2 {
        fill: #f9f7f7;
      }

      .st3 {
        fill: #dd2f3c;
      }

      .st4 {
        display: none;
      }
    </style>
  </defs>
  <g id="Layer_11" data-name="Layer_1" class="st4">
    <g>
      <path class="st1" d="M82.32,155.5c5.1,0,9.79-1.2,14.05-3.59s7.71-5.62,10.35-9.69l19.74,13.28c-2.39,3.51-5.16,6.72-8.31,9.63s-6.62,5.4-10.41,7.48c-3.79,2.07-7.82,3.69-12.08,4.84-4.27,1.15-8.71,1.73-13.34,1.73-7.26,0-14.08-1.38-20.45-4.13-6.38-2.75-11.96-6.52-16.75-11.3-4.78-4.78-8.57-10.41-11.36-16.87-2.79-6.46-4.19-13.32-4.19-20.57s1.39-14.21,4.19-20.63c2.79-6.42,6.58-12,11.36-16.75,4.78-4.74,10.36-8.49,16.75-11.24,6.38-2.75,13.2-4.13,20.45-4.13,4.62,0,9.07.56,13.34,1.67,4.26,1.12,8.29,2.71,12.08,4.78s7.25,4.57,10.41,7.48c3.15,2.91,5.92,6.16,8.31,9.75l-19.74,13.16c-2.63-3.99-6.08-7.18-10.35-9.57s-8.95-3.59-14.05-3.59c-3.99,0-7.76.76-11.3,2.27-3.55,1.52-6.64,3.59-9.27,6.22-2.63,2.63-4.71,5.72-6.22,9.27-1.52,3.55-2.27,7.32-2.27,11.3s.76,7.88,2.27,11.42c1.51,3.55,3.59,6.64,6.22,9.27s5.72,4.71,9.27,6.22,7.32,2.27,11.3,2.27v.02Z"/>
      <path class="st1" d="M229.98,126.32c0,7.26-1.38,14.1-4.13,20.51-2.75,6.42-6.52,12.02-11.3,16.81-4.79,4.78-10.37,8.57-16.75,11.36-6.38,2.79-13.2,4.19-20.45,4.19s-14.21-1.38-20.63-4.13-12.02-6.52-16.81-11.3c-4.78-4.78-8.55-10.41-11.3-16.87s-4.13-13.32-4.13-20.57,1.38-14.09,4.13-20.51,6.52-12.02,11.3-16.81c4.79-4.78,10.39-8.55,16.81-11.3s13.3-4.13,20.63-4.13,14.07,1.38,20.45,4.13,11.96,6.52,16.75,11.3c4.78,4.78,8.55,10.37,11.3,16.75s4.13,13.24,4.13,20.57ZM148.16,126.32c0,4.07.76,7.88,2.27,11.42,1.51,3.55,3.59,6.64,6.22,9.27s5.72,4.71,9.27,6.22,7.36,2.27,11.42,2.27,7.73-.76,11.24-2.27c3.51-1.51,6.58-3.59,9.21-6.22s4.7-5.72,6.22-9.27c1.51-3.55,2.27-7.36,2.27-11.42s-.76-7.75-2.27-11.3c-1.52-3.55-3.59-6.64-6.22-9.27s-5.7-4.7-9.21-6.22c-3.51-1.51-7.26-2.27-11.24-2.27s-7.88.76-11.42,2.27c-3.55,1.52-6.64,3.59-9.27,6.22s-4.71,5.72-6.22,9.27c-1.52,3.55-2.27,7.32-2.27,11.3Z"/>
      <path class="st1" d="M303.71,121.41c0-3.35-.64-6.48-1.91-9.39-1.28-2.91-3.03-5.46-5.26-7.66-2.23-2.19-4.8-3.93-7.71-5.2s-6.04-1.91-9.39-1.91-6.38.64-9.33,1.91c-2.95,1.28-5.52,3.01-7.72,5.2-2.19,2.19-3.93,4.75-5.2,7.66-1.28,2.91-1.91,6.04-1.91,9.39v57.77h-23.68v-105.62h23.68v6.7c3.59-2.15,7.4-3.81,11.42-4.96,4.03-1.15,8.27-1.73,12.74-1.73s8.73.58,12.8,1.73c4.07,1.16,7.89,2.81,11.48,4.96,3.51,2.07,6.72,4.57,9.63,7.48s5.4,6.12,7.48,9.63c2.07,3.51,3.69,7.3,4.84,11.36,1.15,4.07,1.73,8.29,1.73,12.68v57.77h-23.68v-57.77h-.01Z"/>
      <path class="st1" d="M400.84,121.41c0-3.35-.64-6.48-1.91-9.39-1.28-2.91-3.03-5.46-5.26-7.66-2.23-2.19-4.8-3.93-7.71-5.2s-6.04-1.91-9.39-1.91-6.38.64-9.33,1.91c-2.95,1.28-5.52,3.01-7.72,5.2-2.19,2.19-3.93,4.75-5.2,7.66-1.28,2.91-1.91,6.04-1.91,9.39v57.77h-23.68v-105.62h23.68v6.7c3.59-2.15,7.4-3.81,11.42-4.96,4.03-1.15,8.27-1.73,12.74-1.73s8.73.58,12.8,1.73c4.07,1.16,7.89,2.81,11.48,4.96,3.51,2.07,6.72,4.57,9.63,7.48s5.4,6.12,7.48,9.63c2.07,3.51,3.69,7.3,4.84,11.36,1.15,4.07,1.73,8.29,1.73,12.68v57.77h-23.68v-57.77h-.01Z"/>
      <path class="st1" d="M478.58,179.18c-6.54,0-12.74-1.14-18.6-3.41-5.86-2.27-11.12-5.42-15.79-9.45s-8.55-8.77-11.66-14.23c-3.11-5.46-5.18-11.42-6.22-17.88-.16-1.27-.28-2.57-.36-3.89-.08-1.32-.12-2.65-.12-4.01,0-7.34,1.39-14.21,4.19-20.63,2.79-6.42,6.58-12,11.36-16.75,4.78-4.74,10.37-8.49,16.75-11.24s13.2-4.13,20.45-4.13,14.21,1.4,20.63,4.19,12,6.58,16.75,11.36c4.74,4.78,8.49,10.37,11.24,16.75s4.13,13.2,4.13,20.45c0,1.36-.06,2.69-.18,4.01-.12,1.32-.26,2.61-.42,3.89h-80.14c.88,3.11,2.19,5.96,3.95,8.55,1.75,2.59,3.87,4.83,6.34,6.7s5.2,3.35,8.19,4.43c2.99,1.08,6.16,1.61,9.51,1.61,5.1,0,9.79-1.2,14.05-3.59,4.26-2.39,7.71-5.62,10.35-9.69l19.74,13.28c-2.39,3.51-5.16,6.72-8.31,9.63-3.15,2.91-6.62,5.4-10.41,7.48-3.79,2.07-7.82,3.69-12.08,4.84-4.27,1.15-8.71,1.73-13.34,1.73h0ZM503.1,110.65c0-.08-.02-.12-.06-.12s-.06-.04-.06-.12c-2.63-3.99-6.08-7.18-10.35-9.57-4.27-2.39-8.95-3.59-14.05-3.59s-9.91,1.22-14.17,3.65c-4.27,2.43-7.71,5.68-10.35,9.75h49.04Z"/>
      <path class="st1" d="M584.5,155.5c5.1,0,9.79-1.2,14.05-3.59s7.71-5.62,10.35-9.69l19.74,13.28c-2.39,3.51-5.16,6.72-8.31,9.63s-6.62,5.4-10.41,7.48c-3.79,2.07-7.82,3.69-12.08,4.84-4.27,1.15-8.71,1.73-13.34,1.73-7.26,0-14.08-1.38-20.45-4.13-6.38-2.75-11.96-6.52-16.75-11.3-4.78-4.78-8.57-10.41-11.36-16.87-2.79-6.46-4.19-13.32-4.19-20.57s1.39-14.21,4.19-20.63c2.79-6.42,6.58-12,11.36-16.75,4.78-4.74,10.37-8.49,16.75-11.24s13.2-4.13,20.45-4.13c4.62,0,9.07.56,13.34,1.67,4.26,1.12,8.29,2.71,12.08,4.78,3.79,2.07,7.25,4.57,10.41,7.48,3.15,2.91,5.92,6.16,8.31,9.75l-19.74,13.16c-2.63-3.99-6.08-7.18-10.35-9.57-4.27-2.39-8.95-3.59-14.05-3.59-3.99,0-7.76.76-11.3,2.27-3.55,1.52-6.64,3.59-9.27,6.22s-4.71,5.72-6.22,9.27c-1.52,3.55-2.27,7.32-2.27,11.3s.76,7.88,2.27,11.42c1.51,3.55,3.59,6.64,6.22,9.27s5.72,4.71,9.27,6.22c3.55,1.51,7.32,2.27,11.3,2.27v.02Z"/>
      <path class="st1" d="M630.61,126.32V45.1h23.68v28.47h28.8v23.68h-28.8v29.07c0,4.07.76,7.88,2.27,11.42,1.51,3.55,3.59,6.64,6.22,9.27s5.7,4.71,9.21,6.22,7.3,2.27,11.36,2.27v23.68c-5.42,0-10.59-.78-15.49-2.33-4.9-1.56-9.43-3.73-13.58-6.52-3.59-2.39-6.84-5.16-9.75-8.31s-5.4-6.6-7.48-10.35c-2.07-3.75-3.67-7.75-4.78-12.02-1.12-4.27-1.67-8.71-1.67-13.34h.01Z"/>
    </g>
    <g>
      <path class="st0" d="M689.04,154.19c3.99,0,7.75-.76,11.3-2.27,3.55-1.51,6.64-3.59,9.27-6.22s4.7-5.72,6.22-9.27c1.51-3.55,2.27-7.36,2.27-11.42s-.76-7.75-2.27-11.3c-1.52-3.55-3.59-6.64-6.22-9.27-2.63-2.63-5.72-4.7-9.27-6.22-3.55-1.51-7.32-2.27-11.3-2.27v-23.68c7.26,0,14.09,1.38,20.51,4.13s12.02,6.52,16.81,11.3c4.78,4.78,8.55,10.39,11.3,16.81s4.13,13.26,4.13,20.51-1.38,14.11-4.13,20.57-6.52,12.08-11.3,16.87c-4.78,4.78-10.39,8.55-16.81,11.3s-13.26,4.13-20.51,4.13"/>
      <path class="st0" d="M847.71,125c0,7.26-1.38,14.1-4.13,20.51-2.75,6.42-6.52,12.02-11.3,16.81-4.79,4.78-10.37,8.57-16.75,11.36-6.38,2.79-13.2,4.19-20.45,4.19s-14.21-1.38-20.63-4.13-12.02-6.52-16.81-11.3c-4.78-4.78-8.55-10.41-11.3-16.87s-4.13-13.32-4.13-20.57,1.38-14.09,4.13-20.51,6.52-12.02,11.3-16.81c4.79-4.78,10.39-8.55,16.81-11.3s13.3-4.13,20.63-4.13,14.07,1.38,20.45,4.13,11.96,6.52,16.75,11.3c4.78,4.78,8.55,10.37,11.3,16.75s4.13,13.24,4.13,20.57ZM765.89,125c0,4.07.76,7.88,2.27,11.42,1.51,3.55,3.59,6.64,6.22,9.27s5.72,4.71,9.27,6.22c3.55,1.51,7.36,2.27,11.42,2.27s7.73-.76,11.24-2.27c3.51-1.51,6.58-3.59,9.21-6.22s4.7-5.72,6.22-9.27c1.51-3.55,2.27-7.36,2.27-11.42s-.76-7.75-2.27-11.3c-1.52-3.55-3.59-6.64-6.22-9.27s-5.7-4.7-9.21-6.22c-3.51-1.51-7.26-2.27-11.24-2.27s-7.88.76-11.42,2.27c-3.55,1.52-6.64,3.59-9.27,6.22s-4.71,5.72-6.22,9.27c-1.52,3.55-2.27,7.32-2.27,11.3Z"/>
      <path class="st0" d="M848.12,72.25h23.68v57.65c0,3.35.64,6.48,1.91,9.39,1.28,2.91,3.03,5.48,5.26,7.72,2.23,2.23,4.8,3.99,7.71,5.26,2.91,1.27,6.04,1.91,9.39,1.91s6.38-.64,9.33-1.91,5.52-3.03,7.71-5.26,3.93-4.8,5.2-7.72c1.28-2.91,1.91-6.04,1.91-9.39v-57.65h23.68v57.65c0,6.54-1.26,12.72-3.77,18.54s-5.94,10.92-10.29,15.31c-4.35,4.38-9.41,7.83-15.19,10.35-5.78,2.51-11.98,3.77-18.6,3.77s-12.72-1.26-18.54-3.77c-5.82-2.51-10.93-5.96-15.31-10.35-4.39-4.39-7.83-9.49-10.35-15.31s-3.77-12-3.77-18.54v-57.65h.04Z"/>
      <path class="st0" d="M948.48,125V43.78h23.68v28.47h23.8v23.68h-23.8v29.07c0,4.07.76,7.88,2.27,11.42,1.51,3.55,3.59,6.64,6.22,9.27s5.7,4.71,9.21,6.22,7.3,2.27,11.36,2.27v23.68c-5.42,0-10.59-.78-15.49-2.33-4.9-1.56-9.43-3.73-13.58-6.52-3.59-2.39-6.84-5.16-9.75-8.31s-5.4-6.6-7.48-10.35c-2.07-3.75-3.67-7.75-4.78-12.02-1.12-4.27-1.67-8.71-1.67-13.34h.01Z"/>
      <path class="st0" d="M1017.61,33.5c3.35,0,6.16,1.14,8.43,3.41,2.27,2.27,3.41,5.08,3.41,8.43,0,1.6-.3,3.11-.9,4.55s-1.44,2.69-2.51,3.77-2.33,1.93-3.77,2.57-2.99.96-4.67.96-3.11-.32-4.54-.96c-1.44-.64-2.69-1.5-3.77-2.57-1.08-1.08-1.93-2.33-2.57-3.77-.64-1.44-.96-2.95-.96-4.55s.32-3.23.96-4.67c.64-1.44,1.5-2.69,2.57-3.77,1.08-1.08,2.33-1.91,3.77-2.51,1.43-.6,2.95-.9,4.54-.9h0ZM1005.77,72.25h23.68v105.62h-23.68v-105.62h0Z"/>
      <path class="st0" d="M1113.66,72.25h23.68v144.25h-23.68v-47.49c-4.15,2.79-8.67,4.96-13.58,6.52-4.9,1.56-10.07,2.33-15.49,2.33-7.26,0-14.1-1.38-20.51-4.13-6.42-2.75-12.02-6.52-16.81-11.3-4.78-4.78-8.55-10.41-11.3-16.87s-4.13-13.32-4.13-20.57,1.38-14.09,4.13-20.51,6.52-12.02,11.3-16.81c4.79-4.78,10.39-8.55,16.81-11.3s13.26-4.13,20.51-4.13c5.42,0,10.59.76,15.49,2.27,4.9,1.52,9.43,3.67,13.58,6.46v-8.73h0ZM1084.59,95.93c-3.99,0-7.76.76-11.3,2.27-3.55,1.52-6.64,3.59-9.27,6.22s-4.71,5.72-6.22,9.27c-1.52,3.55-2.27,7.32-2.27,11.3s.76,7.88,2.27,11.42c1.51,3.55,3.59,6.64,6.22,9.27s5.72,4.71,9.27,6.22,7.32,2.27,11.3,2.27,7.85-.76,11.36-2.27c3.51-1.51,6.58-3.59,9.21-6.22s4.7-5.72,6.22-9.27c1.51-3.55,2.27-7.36,2.27-11.42s-.76-7.75-2.27-11.3c-1.52-3.55-3.59-6.64-6.22-9.27s-5.7-4.7-9.21-6.22c-3.51-1.51-7.3-2.27-11.36-2.27Z"/>
      <path class="st0" d="M1139.73,72.25h23.68v57.65c0,3.35.64,6.48,1.91,9.39,1.28,2.91,3.03,5.48,5.26,7.72,2.23,2.23,4.8,3.99,7.71,5.26,2.91,1.27,6.04,1.91,9.39,1.91s6.38-.64,9.33-1.91,5.52-3.03,7.71-5.26,3.93-4.8,5.2-7.72c1.28-2.91,1.91-6.04,1.91-9.39v-57.65h23.68v57.65c0,6.54-1.26,12.72-3.77,18.54s-5.94,10.92-10.29,15.31c-4.35,4.38-9.41,7.83-15.19,10.35-5.78,2.51-11.98,3.77-18.6,3.77s-12.72-1.26-18.54-3.77c-5.82-2.51-10.93-5.96-15.31-10.35-4.39-4.39-7.83-9.49-10.35-15.31s-3.77-12-3.77-18.54v-57.65h.04Z"/>
      <path class="st0" d="M1291.88,177.87c-6.54,0-12.74-1.14-18.6-3.41s-11.12-5.42-15.79-9.45-8.55-8.77-11.66-14.23c-3.11-5.46-5.18-11.42-6.22-17.88-.16-1.27-.28-2.57-.36-3.89-.08-1.32-.12-2.65-.12-4.01,0-7.34,1.39-14.21,4.19-20.63,2.79-6.42,6.58-12,11.36-16.75,4.78-4.74,10.37-8.49,16.75-11.24s13.2-4.13,20.45-4.13,14.21,1.4,20.63,4.19,12,6.58,16.75,11.36c4.74,4.78,8.49,10.37,11.24,16.75s4.13,13.2,4.13,20.45c0,1.36-.06,2.69-.18,4.01-.12,1.32-.26,2.61-.42,3.89h-80.14c.88,3.11,2.19,5.96,3.95,8.55,1.75,2.59,3.87,4.83,6.34,6.7s5.2,3.35,8.19,4.43c2.99,1.08,6.16,1.61,9.51,1.61,5.1,0,9.79-1.2,14.05-3.59s7.71-5.62,10.35-9.69l19.74,13.28c-2.39,3.51-5.16,6.72-8.31,9.63s-6.62,5.4-10.41,7.48c-3.79,2.07-7.82,3.69-12.08,4.84-4.27,1.15-8.71,1.73-13.34,1.73h0ZM1316.4,109.33c0-.08-.02-.12-.06-.12s-.06-.04-.06-.12c-2.63-3.99-6.08-7.18-10.35-9.57s-8.95-3.59-14.05-3.59-9.91,1.22-14.17,3.65c-4.27,2.43-7.71,5.68-10.35,9.75h49.04Z"/>
    </g>
  </g>
  <g id="Layer_2">
    <g>
      <path class="st3" d="M101.52,148.84c5.1,0,9.79-1.2,14.05-3.59s7.71-5.62,10.35-9.69l19.74,13.28c-2.39,3.51-5.16,6.72-8.31,9.63s-6.62,5.4-10.41,7.48c-3.79,2.07-7.82,3.69-12.08,4.84-4.27,1.15-8.71,1.73-13.34,1.73-7.26,0-14.08-1.38-20.45-4.13-6.38-2.75-11.96-6.52-16.75-11.3-4.78-4.78-8.57-10.41-11.36-16.87-2.79-6.46-4.19-13.32-4.19-20.57s1.39-14.21,4.19-20.63c2.79-6.42,6.58-12,11.36-16.75,4.78-4.74,10.36-8.49,16.75-11.24,6.38-2.75,13.2-4.13,20.45-4.13,4.62,0,9.07.56,13.34,1.67,4.26,1.12,8.29,2.71,12.08,4.78,3.79,2.07,7.25,4.57,10.41,7.48,3.15,2.91,5.92,6.16,8.31,9.75l-19.74,13.16c-2.63-3.99-6.08-7.18-10.35-9.57s-8.95-3.59-14.05-3.59c-3.99,0-7.76.76-11.3,2.27-3.55,1.52-6.64,3.59-9.27,6.22s-4.71,5.72-6.22,9.27c-1.52,3.55-2.27,7.32-2.27,11.3s.76,7.88,2.27,11.42c1.51,3.55,3.59,6.64,6.22,9.27,2.63,2.63,5.72,4.71,9.27,6.22s7.32,2.27,11.3,2.27v.02Z"/>
      <path class="st3" d="M249.18,119.66c0,7.26-1.38,14.1-4.13,20.51-2.75,6.42-6.52,12.02-11.3,16.81-4.79,4.78-10.37,8.57-16.75,11.36-6.38,2.79-13.2,4.19-20.45,4.19s-14.21-1.38-20.63-4.13-12.02-6.52-16.81-11.3c-4.78-4.78-8.55-10.41-11.3-16.87s-4.13-13.32-4.13-20.57,1.38-14.09,4.13-20.51,6.52-12.02,11.3-16.81c4.79-4.78,10.39-8.55,16.81-11.3s13.3-4.13,20.63-4.13,14.07,1.38,20.45,4.13c6.38,2.75,11.96,6.52,16.75,11.3,4.78,4.78,8.55,10.37,11.3,16.75s4.13,13.24,4.13,20.57ZM167.37,119.66c0,4.07.76,7.88,2.27,11.42,1.51,3.55,3.59,6.64,6.22,9.27s5.72,4.71,9.27,6.22,7.36,2.27,11.42,2.27,7.73-.76,11.24-2.27c3.51-1.51,6.58-3.59,9.21-6.22s4.7-5.72,6.22-9.27c1.51-3.55,2.27-7.36,2.27-11.42s-.76-7.75-2.27-11.3c-1.52-3.55-3.59-6.64-6.22-9.27s-5.7-4.7-9.21-6.22c-3.51-1.51-7.26-2.27-11.24-2.27s-7.88.76-11.42,2.27c-3.55,1.52-6.64,3.59-9.27,6.22s-4.71,5.72-6.22,9.27c-1.52,3.55-2.27,7.32-2.27,11.3Z"/>
      <path class="st2" d="M322.92,114.75c0-3.35-.64-6.48-1.91-9.39-1.28-2.91-3.03-5.46-5.26-7.66-2.23-2.19-4.8-3.93-7.71-5.2s-6.04-1.91-9.39-1.91-6.38.64-9.33,1.91c-2.95,1.28-5.52,3.01-7.72,5.2-2.19,2.19-3.93,4.75-5.2,7.66-1.28,2.91-1.91,6.04-1.91,9.39v57.77h-23.68v-105.62h23.68v6.7c3.59-2.15,7.4-3.81,11.42-4.96,4.03-1.15,8.27-1.73,12.74-1.73s8.73.58,12.8,1.73c4.07,1.16,7.89,2.81,11.48,4.96,3.51,2.07,6.72,4.57,9.63,7.48s5.4,6.12,7.48,9.63c2.07,3.51,3.69,7.3,4.84,11.36,1.15,4.07,1.73,8.29,1.73,12.68v57.77h-23.68v-57.77h-.01Z"/>
      <path class="st2" d="M420.04,114.75c0-3.35-.64-6.48-1.91-9.39-1.28-2.91-3.03-5.46-5.26-7.66-2.23-2.19-4.8-3.93-7.71-5.2s-6.04-1.91-9.39-1.91-6.38.64-9.33,1.91c-2.95,1.28-5.52,3.01-7.72,5.2-2.19,2.19-3.93,4.75-5.2,7.66-1.28,2.91-1.91,6.04-1.91,9.39v57.77h-23.68v-105.62h23.68v6.7c3.59-2.15,7.4-3.81,11.42-4.96,4.03-1.15,8.27-1.73,12.74-1.73s8.73.58,12.8,1.73c4.07,1.16,7.89,2.81,11.48,4.96,3.51,2.07,6.72,4.57,9.63,7.48s5.4,6.12,7.48,9.63c2.07,3.51,3.69,7.3,4.84,11.36,1.15,4.07,1.73,8.29,1.73,12.68v57.77h-23.68v-57.77h-.01Z"/>
      <path class="st2" d="M497.79,172.53c-6.54,0-12.74-1.14-18.6-3.41-5.86-2.27-11.12-5.42-15.79-9.45s-8.55-8.77-11.66-14.23c-3.11-5.46-5.18-11.42-6.22-17.88-.16-1.27-.28-2.57-.36-3.89s-.12-2.65-.12-4.01c0-7.34,1.39-14.21,4.19-20.63,2.79-6.42,6.58-12,11.36-16.75,4.78-4.74,10.37-8.49,16.75-11.24s13.2-4.13,20.45-4.13,14.21,1.4,20.63,4.19,12,6.58,16.75,11.36c4.74,4.78,8.49,10.37,11.24,16.75s4.13,13.2,4.13,20.45c0,1.36-.06,2.69-.18,4.01s-.26,2.61-.42,3.89h-80.14c.88,3.11,2.19,5.96,3.95,8.55,1.75,2.59,3.87,4.83,6.34,6.7s5.2,3.35,8.19,4.43c2.99,1.08,6.16,1.61,9.51,1.61,5.1,0,9.79-1.2,14.05-3.59s7.71-5.62,10.35-9.69l19.74,13.28c-2.39,3.51-5.16,6.72-8.31,9.63s-6.62,5.4-10.41,7.48c-3.79,2.07-7.82,3.69-12.08,4.84-4.27,1.15-8.71,1.73-13.34,1.73h0ZM522.31,103.99c0-.08-.02-.12-.06-.12s-.06-.04-.06-.12c-2.63-3.99-6.08-7.18-10.35-9.57s-8.95-3.59-14.05-3.59-9.91,1.22-14.17,3.65c-4.27,2.43-7.71,5.68-10.35,9.75h49.04Z"/>
      <path class="st2" d="M603.7,148.84c5.1,0,9.79-1.2,14.05-3.59s7.71-5.62,10.35-9.69l19.74,13.28c-2.39,3.51-5.16,6.72-8.31,9.63s-6.62,5.4-10.41,7.48c-3.79,2.07-7.82,3.69-12.08,4.84-4.27,1.15-8.71,1.73-13.34,1.73-7.26,0-14.08-1.38-20.45-4.13-6.38-2.75-11.96-6.52-16.75-11.3-4.78-4.78-8.57-10.41-11.36-16.87-2.79-6.46-4.19-13.32-4.19-20.57s1.39-14.21,4.19-20.63c2.79-6.42,6.58-12,11.36-16.75,4.78-4.74,10.37-8.49,16.75-11.24s13.2-4.13,20.45-4.13c4.62,0,9.07.56,13.34,1.67,4.26,1.12,8.29,2.71,12.08,4.78,3.79,2.07,7.25,4.57,10.41,7.48,3.15,2.91,5.92,6.16,8.31,9.75l-19.74,13.16c-2.63-3.99-6.08-7.18-10.35-9.57-4.27-2.39-8.95-3.59-14.05-3.59-3.99,0-7.76.76-11.3,2.27-3.55,1.52-6.64,3.59-9.27,6.22s-4.71,5.72-6.22,9.27c-1.52,3.55-2.27,7.32-2.27,11.3s.76,7.88,2.27,11.42c1.51,3.55,3.59,6.64,6.22,9.27s5.72,4.71,9.27,6.22c3.55,1.51,7.32,2.27,11.3,2.27v.02Z"/>
      <path class="st2" d="M649.81,119.66V38.44h23.68v28.47h28.8v23.68h-28.8v29.07c0,4.07.76,7.88,2.27,11.42,1.51,3.55,3.59,6.64,6.22,9.27s5.7,4.71,9.21,6.22,7.3,2.27,11.36,2.27v23.68c-5.42,0-10.59-.78-15.49-2.33-4.9-1.56-9.43-3.73-13.58-6.52-3.59-2.39-6.84-5.16-9.75-8.31s-5.4-6.6-7.48-10.35c-2.07-3.75-3.67-7.75-4.78-12.02-1.12-4.27-1.67-8.71-1.67-13.34h.01Z"/>
    </g>
  </g>
</svg>