<?xml version="1.0" encoding="UTF-8"?>
<svg id="Layer_1" xmlns="http://www.w3.org/2000/svg" version="1.1" viewBox="0 0 288.3 57.6">
  <!-- Generator: Adobe Illustrator 29.8.5, SVG Export Plug-In . SVG Version: 2.1.1 Build 2)  -->
  <defs>
    <style>
      .st0 {
        fill: #fff;
      }

      .st1 {
        fill: #ee2a24;
      }
    </style>
  </defs>
  <path class="st1" d="M23.8,7.2c7.1,0,12.9,2.2,17.4,6.6,4.5,4.4,6.7,10.1,6.7,17s-2.2,12.9-6.7,17.4c-4.5,4.5-10.3,6.7-17.4,6.7s-12.6-2.2-17.1-6.7C2.2,43.7,0,37.9,0,30.8s2.2-12.6,6.7-17c4.5-4.4,10.2-6.6,17.1-6.6Z"/>
  <path class="st0" d="M36.8,39.3v-9.9c0-4,2.9-6.5,6-6.5s5.2,1.9,5.2,6.2v10.1h3.2v-10.2c0-6-2.6-9.1-7.6-9.1s-5.9,1.8-6.9,4.2v-3.6h-3v18.8h3.2Z"/>
  <path class="st0" d="M55.4,16.8c1.4,0,2.2-.9,2.2-2s-.8-2-2.2-2-2.2.9-2.2,2,.8,2,2.1,2ZM57,39.3v-18.8h-3.2v18.8h3.2Z"/>
  <path class="st0" d="M67.9,39.8c4.5,0,7.9-2.8,9-6.8h-3.2c-1,2.6-3.2,3.9-5.7,3.9s-6.4-2.6-6.4-7,3.2-6.9,6.4-6.9,4.7,1.3,5.7,3.7h3.3c-1.1-3.9-4.5-6.7-9-6.7s-9.6,4.4-9.6,9.9,4.2,9.9,9.6,9.9Z"/>
  <path class="st0" d="M95.1,29.4c0-5-3.9-9.5-9.3-9.5s-9.6,4.4-9.6,9.9,4.1,9.9,9.6,9.9,7.6-2.7,8.7-6.2h-3.6c-.8,2.1-2.7,3.2-5.2,3.2s-5.9-2.4-6.3-6.1h15.6c0-.7,0-1,0-1.3ZM79.6,27.9c.7-3.2,3.3-5,6.1-5s5.9,2.3,6.1,5h-12.2Z"/>
  <path class="st0" d="M112.9,39.3v-2.7h-2.8c-1.7,0-3.4-.6-3.4-4.1v-9.2h6.2v-2.8h-6.2v-5.6h-3.2v5.6h-4.2v2.8h4.2v9c0,5.9,3.1,7,5.9,7h3.5Z"/>
  <path class="st0" d="M122,39.8c5.6,0,9.8-4.4,9.8-9.9s-4.2-9.9-9.8-9.9-9.8,4.4-9.8,9.9,4.2,9.9,9.8,9.9ZM122,36.8c-3.7,0-6.6-2.9-6.6-6.9s2.9-6.9,6.6-6.9,6.6,3,6.6,6.9-2.9,6.9-6.6,6.9Z"/>
  <path class="st0" d="M162.1,20c-2.9,0-5.4,1.6-6.9,4.8-1-3.2-3.2-4.8-6.6-4.8s-5.5,1.8-6.5,4.2v-3.6h-3v18.8h3.1v-9.9c0-3.8,2.6-6.5,5.5-6.5s4.8,1.9,4.8,6.2v10.1h3.1v-9.9c0-3.8,2.6-6.5,5.5-6.5s4.8,1.9,4.8,6.2v10.1h3.1v-10.2c0-6-2.5-9.1-7.1-9.1Z"/>
  <path class="st0" d="M189.4,29.5c0-5.2-3.8-9.7-9.5-9.7s-9.8,4.5-9.8,10,4.1,10,9.8,10,8.1-3.1,9-6.5h-4.9c-.6,1.6-2,2.5-4.3,2.5s-4.8-1.8-5.3-4.9h14.8c0-.7,0-1,0-1.5ZM174.7,27.6c.8-2.7,2.9-3.9,5.1-3.9s4.8,1.8,5,3.9h-10.1Z"/>
  <path class="st0" d="M207.8,29.5c0-5.2-3.8-9.7-9.5-9.7s-9.8,4.5-9.8,10,4.1,10,9.8,10,8.1-3.1,9-6.5h-4.9c-.6,1.6-2,2.5-4.3,2.5s-4.8-1.8-5.3-4.9h14.8c0-.7,0-1,0-1.5ZM193.1,27.6c.8-2.7,2.9-3.9,5.1-3.9s4.8,1.8,5,3.9h-10.1Z"/>
  <path class="st0" d="M219.3,39.3v-2.7h-2.8c-1.7,0-3.4-.6-3.4-4.1v-9.2h6.2v-2.8h-6.2v-5.6h-3.2v5.6h-4.2v2.8h4.2v9c0,5.9,3.1,7,5.9,7h3.5Z"/>
  <path class="st0" d="M227.3,45.7c4.1,0,5.5-1.6,7.6-6.9l7.4-18.3h-3.4s-5.3,13.3-5.3,13.3l-.5,1.6-.4-1.7-5.3-13.3h-3.4l7.5,18.2-.2.5c-1,2.6-1.7,3.8-4,3.8h-3.1v2.7h3.1Z"/>
  <path class="st0" d="M250.6,39.8c5.6,0,9.8-4.4,9.8-9.9s-4.2-9.9-9.8-9.9-9.8,4.4-9.8,9.9,4.2,9.9,9.8,9.9ZM250.6,36.8c-3.7,0-6.6-2.9-6.6-6.9s2.9-6.9,6.6-6.9,6.6,3,6.6,6.9-2.9,6.9-6.6,6.9Z"/>
  <path class="st0" d="M269.7,39.8c4.9,0,8.5-2.8,8.5-9.3v-10h-3.2v9.9c0,4.2-1.9,6.4-5.4,6.4s-5.4-2.2-5.4-6.4v-9.9h-3.1v10c0,6.5,3.6,9.3,8.6,9.3Z"/>
</svg>